<svg width="228" height="35" viewBox="0 0 228 35" fill="none" xmlns="http://www.w3.org/2000/svg">
<g clip-path="url(#clip0)">
<path d="M13.3221 35.0002L24.2464 1.04764H34.866L37.264 14.1952C37.4163 14.9898 37.5305 15.8567 37.6827 16.7236C37.7969 17.6266 37.9111 18.5296 38.0253 19.5048C38.2156 18.8185 38.444 18.0961 38.7485 17.3015C39.053 16.5069 39.4717 15.5316 40.0427 14.3758L46.4373 1.04764H56.9809L57.8183 34.964H48.9876L48.8734 18.7824C48.8734 17.8794 48.8734 16.9764 48.9115 16.0734C48.9495 15.1704 48.9876 14.3036 49.0637 13.4006C48.7211 14.5564 48.1121 15.9651 47.2367 17.6988C47.0844 18.0239 46.9702 18.2767 46.856 18.4573L38.7105 34.964H32.9629L29.6133 18.4935C29.423 17.6627 29.2707 16.8319 29.1185 15.9651C28.9662 15.1343 28.852 14.2674 28.7378 13.4367C28.5475 14.448 28.3572 15.3872 28.1669 16.2902C27.9766 17.1931 27.7482 18.0239 27.5579 18.7824L22.6096 34.964H13.3221V35.0002Z" fill="#232856"/>
<path d="M60.6351 35L78.5249 1.08362H90.4769L98.0895 35H88.3834L86.937 28.6068H74.4141L70.9884 35H60.6351ZM78.0301 21.0578H85.5667L83.9299 13.1476C83.7777 12.353 83.6635 11.6667 83.5493 11.0527C83.4732 10.4386 83.4351 9.86071 83.3971 9.31891C83.0545 10.258 82.75 11.0527 82.4455 11.7751C82.179 12.4613 81.9506 13.0031 81.7603 13.3282L78.0301 21.0578Z" fill="#232856"/>
<path d="M112.059 35H102.543L108.176 1.08362H117.692C120.547 1.08362 122.679 1.19198 124.087 1.37258C125.495 1.55317 126.713 1.87825 127.741 2.34781C129.53 3.14244 130.9 4.29827 131.852 5.74306C132.765 7.18785 133.26 8.95772 133.26 10.9804C133.26 13.7978 132.385 16.1455 130.596 18.0238C128.845 19.902 126.409 21.0939 123.288 21.5635L131.966 34.9639H121.08L114.19 22.0331L112.059 35ZM115.104 16.579H118.111C120.014 16.579 121.461 16.1817 122.45 15.3509C123.478 14.5202 123.973 13.3643 123.973 11.8112C123.973 10.3664 123.516 9.31891 122.564 8.63264C121.613 7.98248 120.09 7.65741 118.035 7.65741H116.626L115.104 16.579Z" fill="#232856"/>
<path d="M138.323 35L143.994 1.08362H153.738L148.067 35H138.323Z" fill="#232856"/>
<path d="M158.382 35L164.015 1.08362H174.94L182.476 17.8432C182.552 17.9876 182.628 18.2044 182.781 18.5656C183.618 20.4077 184.189 21.9969 184.532 23.3695V22.5026C184.532 21.8886 184.57 21.2023 184.646 20.4438C184.722 19.6853 184.836 18.7823 184.988 17.7348L187.767 1.08362H197.321L191.688 35H181.182L173.189 17.7348C172.618 16.4706 172.161 15.4593 171.856 14.6285C171.552 13.7978 171.285 13.0031 171.095 12.1724V13.1115C171.095 13.7255 171.057 14.3757 171.019 15.0619C170.943 15.7482 170.867 16.6512 170.715 17.807L168.012 34.9639H158.382V35Z" fill="#232856"/>
<path d="M212.546 27.451H223.623L222.367 35H201.736L207.37 1.08362H228L226.706 8.9216H215.629L214.716 14.4479H224.955L223.775 21.8163H213.46L212.546 27.451Z" fill="#232856"/>
<path d="M0 35H7.4985L10.5436 10.8359H3.04508L0 35Z" fill="#3EC0F0"/>
<path d="M10.5816 1.22807C10.1629 0.830753 9.66808 0.541796 9.09713 0.325077C8.60231 0.108359 8.03135 0 7.42234 0C6.85139 0 6.28044 0.108359 5.78561 0.325077C5.25272 0.541796 4.79596 0.866873 4.37726 1.22807C3.95857 1.62539 3.65406 2.09494 3.42568 2.60062C3.1973 3.1063 3.04504 3.68421 3.04504 4.22601C3.04504 4.7678 3.15923 5.34572 3.42568 5.85139C3.65406 6.35707 3.99663 6.79051 4.37726 7.18782C4.79596 7.58514 5.25272 7.8741 5.78561 8.09082C6.3185 8.30753 6.85139 8.41589 7.42234 8.41589C7.99329 8.41589 8.60231 8.30753 9.13519 8.09082C9.66808 7.8741 10.1629 7.54902 10.5816 7.18782C11.0003 6.82663 11.3429 6.35707 11.6093 5.85139C11.8758 5.34572 11.99 4.80392 11.99 4.22601C11.99 3.64809 11.8758 3.1063 11.6093 2.5645C11.3809 2.09494 11.0384 1.62539 10.5816 1.22807Z" fill="#3EC0F0"/>
</g>
<defs>
<clipPath id="clip0">
<rect width="228" height="35" fill="white"/>
</clipPath>
</defs>
</svg>
