<svg width="10" height="9" viewBox="0 0 10 9" fill="none" xmlns="http://www.w3.org/2000/svg">
<path d="M6.9 0C7.13869 0 7.36761 0.0948212 7.5364 0.263604C7.70518 0.432387 7.8 0.661305 7.8 0.9V1.2H8.1C8.49782 1.2 8.87935 1.35804 9.16066 1.63934C9.44196 1.92064 9.6 2.30218 9.6 2.7V5.7C9.6 5.9387 9.50518 6.16761 9.33639 6.3364C9.16761 6.50518 8.93869 6.6 8.7 6.6H7.8V7.5C7.8 7.7387 7.70518 7.96761 7.5364 8.1364C7.36761 8.30518 7.13869 8.4 6.9 8.4H2.7C2.4613 8.4 2.23239 8.30518 2.0636 8.1364C1.89482 7.96761 1.8 7.7387 1.8 7.5V6.6H0.9C0.661305 6.6 0.432387 6.50518 0.263604 6.3364C0.0948212 6.16761 0 5.9387 0 5.7V2.7C0 2.30218 0.158035 1.92064 0.43934 1.63934C0.720644 1.35804 1.10218 1.2 1.5 1.2H1.8V0.9C1.8 0.661305 1.89482 0.432387 2.0636 0.263604C2.23239 0.0948212 2.4613 0 2.7 0H6.9ZM6.9 4.8H2.7C2.62043 4.8 2.54413 4.83161 2.48787 4.88787C2.43161 4.94413 2.4 5.02044 2.4 5.1V7.5C2.4 7.57957 2.43161 7.65587 2.48787 7.71213C2.54413 7.76839 2.62043 7.8 2.7 7.8H6.9C6.97956 7.8 7.05587 7.76839 7.11213 7.71213C7.16839 7.65587 7.2 7.57957 7.2 7.5V5.1C7.2 5.02044 7.16839 4.94413 7.11213 4.88787C7.05587 4.83161 6.97956 4.8 6.9 4.8ZM6.9 0.6H2.7C2.62043 0.6 2.54413 0.631607 2.48787 0.687868C2.43161 0.744129 2.4 0.820435 2.4 0.9V1.2H7.2V0.9C7.2 0.820435 7.16839 0.744129 7.11213 0.687868C7.05587 0.631607 6.97956 0.6 6.9 0.6Z" fill="white"/>
</svg>
