<svg width="15" height="15" viewBox="0 0 15 15" fill="none" xmlns="http://www.w3.org/2000/svg">
<path d="M11.25 6.24994C11.7314 6.2497 12.2026 6.38845 12.607 6.64951C13.0115 6.91058 13.332 7.28286 13.53 7.72164C13.728 8.16041 13.7951 8.64702 13.7232 9.12302C13.6514 9.59901 13.4437 10.0441 13.125 10.4049V13.2799C13.1252 13.3602 13.1047 13.4391 13.0656 13.5092C13.0265 13.5793 12.9701 13.6382 12.9017 13.6802C12.8333 13.7222 12.7553 13.746 12.6751 13.7492C12.595 13.7525 12.5153 13.7351 12.4438 13.6987L12.3875 13.6643L11.25 12.8693L10.1125 13.6643C10.0468 13.7102 9.97045 13.7385 9.89073 13.7464C9.81101 13.7544 9.73057 13.7418 9.6571 13.7098C9.58364 13.6778 9.51959 13.6276 9.47108 13.5638C9.42257 13.5 9.39121 13.4249 9.38 13.3456L9.37563 13.2806V10.4043C9.05718 10.0435 8.84963 9.59852 8.77788 9.12269C8.70613 8.64686 8.77324 8.16043 8.97114 7.72179C9.16904 7.28316 9.48934 6.91096 9.89357 6.64988C10.2978 6.3888 10.7688 6.24993 11.25 6.24994ZM12.1875 11.0693C11.8896 11.1896 11.5713 11.2511 11.25 11.2506C10.9287 11.2511 10.6104 11.1896 10.3125 11.0693V12.3806L10.9819 11.9137C11.0505 11.8658 11.1306 11.8371 11.214 11.8306C11.2975 11.8241 11.3811 11.8401 11.4563 11.8768L11.5188 11.9143L12.1875 12.3806V11.0693ZM12.0312 1.87744C12.469 1.87743 12.8903 2.04447 13.2091 2.34448C13.528 2.64448 13.7203 3.05484 13.7469 3.49182L13.75 3.59619L13.7506 6.87494C13.4971 6.53771 13.1783 6.25501 12.8131 6.04369L12.8125 3.59557C12.8124 3.40226 12.7407 3.21585 12.6112 3.07236C12.4817 2.92886 12.3035 2.83849 12.1112 2.81869L12.0312 2.81432H2.96875C2.77534 2.81423 2.58877 2.88589 2.44515 3.01542C2.30152 3.14496 2.21106 3.32317 2.19125 3.51557L2.1875 3.59557V9.53307C2.1875 9.93744 2.495 10.2706 2.88875 10.3106L2.96875 10.3143L7.79563 10.3149L7.87312 10.4418L7.95625 10.5649L8.00063 10.6231L8 11.2518H2.96875C2.53107 11.2518 2.10987 11.0849 1.79106 10.785C1.47226 10.4851 1.27986 10.0749 1.25313 9.63807L1.25 9.53369V3.59619C1.25014 3.15862 1.41716 2.73758 1.71702 2.4189C2.01688 2.10023 2.427 1.90792 2.86375 1.88119L2.96875 1.87807L12.0312 1.87744ZM11.25 7.18744C10.8355 7.18744 10.438 7.35209 10.1449 7.64518C9.85184 7.93826 9.68719 8.33577 9.68719 8.75025C9.68719 9.16474 9.85184 9.56225 10.1449 9.85533C10.438 10.1484 10.8355 10.3131 11.25 10.3131C11.6645 10.3131 12.062 10.1484 12.3551 9.85533C12.6482 9.56225 12.8128 9.16474 12.8128 8.75025C12.8128 8.33577 12.6482 7.93826 12.3551 7.64518C12.062 7.35209 11.6645 7.18744 11.25 7.18744ZM7.03125 7.81244C7.15001 7.81248 7.26434 7.85759 7.35112 7.93867C7.4379 8.01976 7.49067 8.13075 7.49877 8.24924C7.50686 8.36773 7.46968 8.48487 7.39473 8.577C7.31978 8.66913 7.21266 8.72938 7.095 8.74557L7.03125 8.74994H4.21875C4.09999 8.74991 3.98566 8.70479 3.89888 8.62371C3.8121 8.54263 3.75933 8.43163 3.75123 8.31314C3.74314 8.19465 3.78032 8.07751 3.85527 7.98538C3.93022 7.89325 4.03734 7.833 4.155 7.81682L4.21875 7.81244H7.03125ZM10.7812 4.37494C10.9 4.37498 11.0143 4.42009 11.1011 4.50117C11.1879 4.58225 11.2407 4.69325 11.2488 4.81174C11.2569 4.93023 11.2197 5.04737 11.1447 5.1395C11.0698 5.23163 10.9627 5.29188 10.845 5.30807L10.7812 5.31244H4.21875C4.09999 5.31241 3.98566 5.26729 3.89888 5.18621C3.8121 5.10513 3.75933 4.99413 3.75123 4.87564C3.74314 4.75715 3.78032 4.64001 3.85527 4.54788C3.93022 4.45575 4.03734 4.3955 4.155 4.37932L4.21875 4.37494H10.7812Z" fill="#B5B5C3"/>
<circle cx="11.2" cy="8.7002" r="2" fill="#4BA4FF"/>
</svg>
