<svg width="15" height="15" viewBox="0 0 15 15" fill="none" xmlns="http://www.w3.org/2000/svg">
<path d="M11.25 6.25003C11.7314 6.24979 12.2026 6.38854 12.607 6.64961C13.0115 6.91067 13.332 7.28295 13.53 7.72173C13.728 8.1605 13.7951 8.64712 13.7232 9.12311C13.6514 9.5991 13.4437 10.0442 13.125 10.405V13.28C13.1252 13.3603 13.1047 13.4392 13.0656 13.5093C13.0265 13.5794 12.9701 13.6383 12.9017 13.6803C12.8333 13.7223 12.7553 13.7461 12.6751 13.7493C12.595 13.7526 12.5153 13.7352 12.4438 13.6988L12.3875 13.6644L11.25 12.8694L10.1125 13.6644C10.0468 13.7103 9.97046 13.7385 9.89073 13.7465C9.81101 13.7545 9.73057 13.7419 9.6571 13.7099C9.58364 13.6779 9.51959 13.6277 9.47108 13.5639C9.42257 13.5001 9.39121 13.425 9.38 13.3457L9.37563 13.2807V10.4044C9.05718 10.0436 8.84963 9.59862 8.77788 9.12278C8.70613 8.64695 8.77324 8.16052 8.97114 7.72188C9.16904 7.28325 9.48934 6.91105 9.89357 6.64997C10.2978 6.38889 10.7688 6.25002 11.25 6.25003ZM12.1875 11.0694C11.8896 11.1896 11.5713 11.2512 11.25 11.2507C10.9287 11.2512 10.6104 11.1896 10.3125 11.0694V12.3807L10.9819 11.9138C11.0505 11.8659 11.1306 11.8372 11.214 11.8307C11.2975 11.8242 11.3811 11.8402 11.4563 11.8769L11.5188 11.9144L12.1875 12.3807V11.0694ZM12.0312 1.87753C12.469 1.87752 12.8903 2.04456 13.2091 2.34457C13.528 2.64458 13.7203 3.05494 13.7469 3.49191L13.75 3.59628L13.7506 6.87503C13.4971 6.53781 13.1783 6.2551 12.8131 6.04378L12.8125 3.59566C12.8124 3.40235 12.7407 3.21594 12.6112 3.07245C12.4817 2.92896 12.3035 2.83858 12.1112 2.81878L12.0312 2.81441H2.96875C2.77534 2.81432 2.58877 2.88598 2.44515 3.01552C2.30152 3.14505 2.21106 3.32326 2.19125 3.51566L2.1875 3.59566V9.53316C2.1875 9.93753 2.495 10.2707 2.88875 10.3107L2.96875 10.3144L8.545 10.315L8.6225 10.4419L8.70563 10.565L8.75 10.6232L8.74937 11.2519H2.96875C2.53107 11.2519 2.10987 11.085 1.79106 10.7851C1.47226 10.4852 1.27986 10.075 1.25313 9.63816L1.25 9.53378V3.59628C1.25014 3.15871 1.41716 2.73767 1.71702 2.41899C2.01688 2.10032 2.427 1.90801 2.86375 1.88128L2.96875 1.87816H12.0312V1.87753ZM11.25 7.18753C10.8355 7.18753 10.438 7.35219 10.1449 7.64527C9.85184 7.93835 9.68719 8.33586 9.68719 8.75035C9.68719 9.16483 9.85184 9.56234 10.1449 9.85542C10.438 10.1485 10.8355 10.3132 11.25 10.3132C11.6645 10.3132 12.062 10.1485 12.3551 9.85542C12.6482 9.56234 12.8128 9.16483 12.8128 8.75035C12.8128 8.33586 12.6482 7.93835 12.3551 7.64527C12.062 7.35219 11.6645 7.18753 11.25 7.18753ZM7.03125 7.81253C7.15001 7.81257 7.26434 7.85769 7.35112 7.93877C7.4379 8.01985 7.49067 8.13084 7.49877 8.24933C7.50686 8.36782 7.46968 8.48497 7.39473 8.5771C7.31978 8.66922 7.21266 8.72947 7.095 8.74566L7.03125 8.75003H4.21875C4.09999 8.75 3.98566 8.70488 3.89888 8.6238C3.8121 8.54272 3.75933 8.43172 3.75123 8.31323C3.74314 8.19474 3.78032 8.0776 3.85527 7.98547C3.93022 7.89334 4.03734 7.8331 4.155 7.81691L4.21875 7.81253H7.03125ZM10.7812 4.37503C10.9 4.37507 11.0143 4.42019 11.1011 4.50127C11.1879 4.58235 11.2407 4.69334 11.2488 4.81183C11.2569 4.93032 11.2197 5.04747 11.1447 5.1396C11.0698 5.23172 10.9627 5.29197 10.845 5.30816L10.7812 5.31253H4.21875C4.09999 5.3125 3.98566 5.26738 3.89888 5.1863C3.8121 5.10522 3.75933 4.99422 3.75123 4.87573C3.74314 4.75724 3.78032 4.6401 3.85527 4.54797C3.93022 4.45584 4.03734 4.3956 4.155 4.37941L4.21875 4.37503H10.7812Z" fill="#B5B5C3"/>
</svg>
