<svg width="39" height="39" viewBox="0 0 39 39" fill="none" xmlns="http://www.w3.org/2000/svg">
<path d="M32.9062 4.875H1.21875V29.25H32.9062V4.875ZM30.4688 26.8125H3.65625V7.3125H30.4688V26.8125Z" fill="white"/>
<path d="M35.3438 10.9688V31.6875H7.3125V34.125H37.7812V10.9688H35.3438Z" fill="white"/>
<path d="M17.0625 23.0389C20.0865 23.0389 22.5469 20.3625 22.5469 17.0727C22.5469 13.7829 20.0865 11.1064 17.0625 11.1064C14.0385 11.1064 11.5781 13.7828 11.5781 17.0727C11.5781 20.3625 14.0385 23.0389 17.0625 23.0389ZM17.0625 13.5439C18.7425 13.5439 20.1094 15.1269 20.1094 17.0727C20.1094 19.0184 18.7425 20.6014 17.0625 20.6014C15.3825 20.6014 14.0156 19.0184 14.0156 17.0727C14.0156 15.1269 15.3825 13.5439 17.0625 13.5439Z" fill="white"/>
<path d="M6.09375 10.3594H8.53125V23.7656H6.09375V10.3594Z" fill="white"/>
<path d="M25.5938 10.3594H28.0312V23.7656H25.5938V10.3594Z" fill="white"/>
</svg>
