<svg width="263" height="1090" viewBox="0 0 263 1090" fill="none" xmlns="http://www.w3.org/2000/svg">
<rect width="263" height="1500" fill="#1E1E2D"/>
<rect width="263" height="65" fill="#1B1B28"/>
<path d="M226.981 26.7071C227.369 26.3166 227.369 25.6834 226.981 25.2929C226.593 24.9024 225.965 24.9024 225.578 25.2929L219.623 31.2929C219.247 31.6715 219.234 32.2811 219.593 32.6757L225.051 38.6757C225.422 39.0828 226.05 39.1103 226.454 38.7372C226.858 38.364 226.885 37.7314 226.515 37.3243L221.698 32.0301L226.981 26.7071Z" fill="#6993FF"/>
<path opacity="0.3" d="M233.928 26.7071C234.316 26.3166 234.316 25.6834 233.928 25.2929C233.541 24.9024 232.912 24.9024 232.525 25.2929L226.57 31.2929C226.194 31.6715 226.181 32.2811 226.54 32.6757L231.999 38.6757C232.369 39.0828 232.997 39.1103 233.401 38.7372C233.805 38.364 233.832 37.7314 233.462 37.3243L228.645 32.0301L233.928 26.7071Z" fill="#6993FF"/>
<path d="M28.0128 26.364V39H24.9348V26.364H28.0128ZM45.8134 26.364V39H42.7354V31.422L39.9094 39H37.4254L34.5814 31.404V39H31.5034V26.364H35.1394L38.6854 35.112L42.1954 26.364H45.8134ZM57.1529 36.768H52.4369L51.6809 39H48.4589L53.0309 26.364H56.5949L61.1669 39H57.9089L57.1529 36.768ZM56.3609 34.392L54.7949 29.766L53.2469 34.392H56.3609ZM70.2624 39L67.6344 34.23H66.8964V39H63.8184V26.364H68.9844C69.9804 26.364 70.8264 26.538 71.5224 26.886C72.2304 27.234 72.7584 27.714 73.1064 28.326C73.4544 28.926 73.6284 29.598 73.6284 30.342C73.6284 31.182 73.3884 31.932 72.9084 32.592C72.4404 33.252 71.7444 33.72 70.8204 33.996L73.7364 39H70.2624ZM66.8964 32.052H68.8044C69.3684 32.052 69.7884 31.914 70.0644 31.638C70.3524 31.362 70.4964 30.972 70.4964 30.468C70.4964 29.988 70.3524 29.61 70.0644 29.334C69.7884 29.058 69.3684 28.92 68.8044 28.92H66.8964V32.052ZM79.8986 26.364V39H76.8206V26.364H79.8986ZM94.6931 39H91.6151L86.4671 31.206V39H83.3891V26.364H86.4671L91.6151 34.194V26.364H94.6931V39ZM101.262 28.83V31.386H105.384V33.762H101.262V36.534H105.924V39H98.1843V26.364H105.924V28.83H101.262Z" fill="white"/>
<path d="M32.2124 121.756C32.7624 122.199 33.5476 122.199 34.0973 121.755L40.7074 116.413L40.939 116.227C41.6849 115.627 41.6862 114.492 40.9415 113.891L34.0974 108.365C33.5476 107.921 32.7626 107.921 32.2128 108.365L25.3642 113.894C24.621 114.494 24.6205 115.627 25.3632 116.228L25.5925 116.413L32.2124 121.756Z" fill="#6993FF"/>
<path opacity="0.3" fill-rule="evenodd" clip-rule="evenodd" d="M34.0869 124.461C33.5372 124.905 32.7524 124.905 32.2026 124.461L26.3327 119.724C25.9216 119.392 25.3177 119.465 24.9973 119.885C24.6849 120.295 24.761 120.88 25.1679 121.196L32.2337 126.682C32.7749 127.102 33.532 127.102 34.0733 126.682L41.1358 121.2C41.5461 120.882 41.6227 120.292 41.3073 119.879C40.9842 119.457 40.3761 119.384 39.9621 119.718L34.0869 124.461Z" fill="#6993FF"/>
<path d="M33.2268 174.696V183H32.1348V176.808L29.3748 183H28.6068L25.8348 176.796V183H24.7428V174.696H25.9188L28.9908 181.56L32.0628 174.696H33.2268ZM34.6708 179.688C34.6708 179.016 34.8068 178.428 35.0788 177.924C35.3508 177.412 35.7228 177.016 36.1948 176.736C36.6748 176.456 37.2068 176.316 37.7908 176.316C38.3668 176.316 38.8668 176.44 39.2908 176.688C39.7148 176.936 40.0308 177.248 40.2388 177.624V176.424H41.3428V183H40.2388V181.776C40.0228 182.16 39.6988 182.48 39.2668 182.736C38.8428 182.984 38.3468 183.108 37.7788 183.108C37.1948 183.108 36.6668 182.964 36.1948 182.676C35.7228 182.388 35.3508 181.984 35.0788 181.464C34.8068 180.944 34.6708 180.352 34.6708 179.688ZM40.2388 179.7C40.2388 179.204 40.1388 178.772 39.9388 178.404C39.7388 178.036 39.4668 177.756 39.1228 177.564C38.7868 177.364 38.4148 177.264 38.0068 177.264C37.5988 177.264 37.2268 177.36 36.8908 177.552C36.5548 177.744 36.2868 178.024 36.0868 178.392C35.8868 178.76 35.7868 179.192 35.7868 179.688C35.7868 180.192 35.8868 180.632 36.0868 181.008C36.2868 181.376 36.5548 181.66 36.8908 181.86C37.2268 182.052 37.5988 182.148 38.0068 182.148C38.4148 182.148 38.7868 182.052 39.1228 181.86C39.4668 181.66 39.7388 181.376 39.9388 181.008C40.1388 180.632 40.2388 180.196 40.2388 179.7ZM43.7522 175.356C43.5442 175.356 43.3682 175.284 43.2242 175.14C43.0802 174.996 43.0082 174.82 43.0082 174.612C43.0082 174.404 43.0802 174.228 43.2242 174.084C43.3682 173.94 43.5442 173.868 43.7522 173.868C43.9522 173.868 44.1202 173.94 44.2562 174.084C44.4002 174.228 44.4722 174.404 44.4722 174.612C44.4722 174.82 44.4002 174.996 44.2562 175.14C44.1202 175.284 43.9522 175.356 43.7522 175.356ZM44.2802 176.424V183H43.1882V176.424H44.2802ZM49.3453 176.304C50.1453 176.304 50.7933 176.548 51.2893 177.036C51.7853 177.516 52.0333 178.212 52.0333 179.124V183H50.9533V179.28C50.9533 178.624 50.7893 178.124 50.4613 177.78C50.1333 177.428 49.6853 177.252 49.1173 177.252C48.5413 177.252 48.0813 177.432 47.7373 177.792C47.4013 178.152 47.2333 178.676 47.2333 179.364V183H46.1413V176.424H47.2333V177.36C47.4493 177.024 47.7413 176.764 48.1093 176.58C48.4853 176.396 48.8973 176.304 49.3453 176.304ZM65.5003 174.696V183H64.4083V176.808L61.6483 183H60.8803L58.1083 176.796V183H57.0163V174.696H58.1923L61.2643 181.56L64.3363 174.696H65.5003ZM73.3522 179.46C73.3522 179.668 73.3402 179.888 73.3162 180.12H68.0602C68.1002 180.768 68.3202 181.276 68.7202 181.644C69.1282 182.004 69.6202 182.184 70.1962 182.184C70.6682 182.184 71.0602 182.076 71.3722 181.86C71.6922 181.636 71.9162 181.34 72.0442 180.972H73.2202C73.0442 181.604 72.6922 182.12 72.1642 182.52C71.6362 182.912 70.9802 183.108 70.1962 183.108C69.5722 183.108 69.0122 182.968 68.5162 182.688C68.0282 182.408 67.6442 182.012 67.3642 181.5C67.0842 180.98 66.9442 180.38 66.9442 179.7C66.9442 179.02 67.0802 178.424 67.3522 177.912C67.6242 177.4 68.0042 177.008 68.4922 176.736C68.9882 176.456 69.5562 176.316 70.1962 176.316C70.8202 176.316 71.3722 176.452 71.8522 176.724C72.3322 176.996 72.7002 177.372 72.9562 177.852C73.2202 178.324 73.3522 178.86 73.3522 179.46ZM72.2242 179.232C72.2242 178.816 72.1322 178.46 71.9482 178.164C71.7642 177.86 71.5122 177.632 71.1922 177.48C70.8802 177.32 70.5322 177.24 70.1482 177.24C69.5962 177.24 69.1242 177.416 68.7322 177.768C68.3482 178.12 68.1282 178.608 68.0722 179.232H72.2242ZM77.9976 176.304C78.7976 176.304 79.4456 176.548 79.9416 177.036C80.4376 177.516 80.6856 178.212 80.6856 179.124V183H79.6056V179.28C79.6056 178.624 79.4416 178.124 79.1136 177.78C78.7856 177.428 78.3376 177.252 77.7696 177.252C77.1936 177.252 76.7336 177.432 76.3896 177.792C76.0536 178.152 75.8856 178.676 75.8856 179.364V183H74.7936V176.424H75.8856V177.36C76.1016 177.024 76.3936 176.764 76.7616 176.58C77.1376 176.396 77.5496 176.304 77.9976 176.304ZM88.3014 176.424V183H87.2094V182.028C87.0014 182.364 86.7094 182.628 86.3334 182.82C85.9654 183.004 85.5574 183.096 85.1094 183.096C84.5974 183.096 84.1374 182.992 83.7294 182.784C83.3214 182.568 82.9974 182.248 82.7574 181.824C82.5254 181.4 82.4094 180.884 82.4094 180.276V176.424H83.4894V180.132C83.4894 180.78 83.6534 181.28 83.9814 181.632C84.3094 181.976 84.7574 182.148 85.3254 182.148C85.9094 182.148 86.3694 181.968 86.7054 181.608C87.0414 181.248 87.2094 180.724 87.2094 180.036V176.424H88.3014Z" fill="#4A4B68"/>
<path d="M61.3843 112.939C62.3723 112.939 63.2259 113.125 63.9453 113.498C64.6733 113.862 65.2279 114.386 65.6093 115.071C65.9993 115.756 66.1943 116.562 66.1943 117.489C66.1943 118.416 65.9993 119.222 65.6093 119.907C65.2279 120.583 64.6733 121.103 63.9453 121.467C63.2259 121.822 62.3723 122 61.3843 122H58.5633V112.939H61.3843ZM61.3843 121.025C62.5543 121.025 63.4469 120.717 64.0623 120.102C64.6776 119.478 64.9853 118.607 64.9853 117.489C64.9853 116.362 64.6733 115.483 64.0493 114.85C63.4339 114.217 62.5456 113.901 61.3843 113.901H59.7463V121.025H61.3843ZM67.3127 118.412C67.3127 117.684 67.46 117.047 67.7547 116.501C68.0493 115.946 68.4523 115.517 68.9637 115.214C69.4837 114.911 70.06 114.759 70.6927 114.759C71.3167 114.759 71.8583 114.893 72.3177 115.162C72.777 115.431 73.1193 115.769 73.3447 116.176V114.876H74.5407V122H73.3447V120.674C73.1107 121.09 72.7597 121.437 72.2917 121.714C71.8323 121.983 71.295 122.117 70.6797 122.117C70.047 122.117 69.475 121.961 68.9637 121.649C68.4523 121.337 68.0493 120.899 67.7547 120.336C67.46 119.773 67.3127 119.131 67.3127 118.412ZM73.3447 118.425C73.3447 117.888 73.2363 117.42 73.0197 117.021C72.803 116.622 72.5083 116.319 72.1357 116.111C71.7717 115.894 71.3687 115.786 70.9267 115.786C70.4847 115.786 70.0817 115.89 69.7177 116.098C69.3537 116.306 69.0633 116.609 68.8467 117.008C68.63 117.407 68.5217 117.875 68.5217 118.412C68.5217 118.958 68.63 119.435 68.8467 119.842C69.0633 120.241 69.3537 120.548 69.7177 120.765C70.0817 120.973 70.4847 121.077 70.9267 121.077C71.3687 121.077 71.7717 120.973 72.1357 120.765C72.5083 120.548 72.803 120.241 73.0197 119.842C73.2363 119.435 73.3447 118.962 73.3447 118.425ZM79.0618 122.117C78.5158 122.117 78.0262 122.026 77.5928 121.844C77.1595 121.653 76.8172 121.393 76.5658 121.064C76.3145 120.726 76.1758 120.34 76.1498 119.907H77.3718C77.4065 120.262 77.5712 120.553 77.8658 120.778C78.1692 121.003 78.5635 121.116 79.0488 121.116C79.4995 121.116 79.8548 121.016 80.1148 120.817C80.3748 120.618 80.5048 120.366 80.5048 120.063C80.5048 119.751 80.3662 119.521 80.0888 119.374C79.8115 119.218 79.3825 119.066 78.8018 118.919C78.2732 118.78 77.8398 118.642 77.5018 118.503C77.1725 118.356 76.8865 118.143 76.6438 117.866C76.4098 117.58 76.2928 117.207 76.2928 116.748C76.2928 116.384 76.4012 116.05 76.6178 115.747C76.8345 115.444 77.1422 115.205 77.5408 115.032C77.9395 114.85 78.3945 114.759 78.9058 114.759C79.6945 114.759 80.3315 114.958 80.8168 115.357C81.3022 115.756 81.5622 116.302 81.5968 116.995H80.4138C80.3878 116.622 80.2362 116.323 79.9588 116.098C79.6902 115.873 79.3262 115.76 78.8668 115.76C78.4422 115.76 78.1042 115.851 77.8528 116.033C77.6015 116.215 77.4758 116.453 77.4758 116.748C77.4758 116.982 77.5495 117.177 77.6968 117.333C77.8528 117.48 78.0435 117.602 78.2688 117.697C78.5028 117.784 78.8235 117.883 79.2308 117.996C79.7422 118.135 80.1582 118.273 80.4788 118.412C80.7995 118.542 81.0725 118.741 81.2978 119.01C81.5318 119.279 81.6532 119.63 81.6618 120.063C81.6618 120.453 81.5535 120.804 81.3368 121.116C81.1202 121.428 80.8125 121.675 80.4138 121.857C80.0238 122.03 79.5732 122.117 79.0618 122.117ZM86.8678 114.746C87.4051 114.746 87.8905 114.863 88.3238 115.097C88.7571 115.322 89.0951 115.665 89.3378 116.124C89.5891 116.583 89.7148 117.142 89.7148 117.801V122H88.5448V117.97C88.5448 117.259 88.3671 116.718 88.0118 116.345C87.6565 115.964 87.1711 115.773 86.5558 115.773C85.9318 115.773 85.4335 115.968 85.0608 116.358C84.6968 116.748 84.5148 117.316 84.5148 118.061V122H83.3318V112.38H84.5148V115.89C84.7488 115.526 85.0695 115.244 85.4768 115.045C85.8928 114.846 86.3565 114.746 86.8678 114.746ZM92.8302 116.202C93.0729 115.777 93.4282 115.431 93.8962 115.162C94.3642 114.893 94.8972 114.759 95.4952 114.759C96.1366 114.759 96.7129 114.911 97.2242 115.214C97.7356 115.517 98.1386 115.946 98.4332 116.501C98.7279 117.047 98.8752 117.684 98.8752 118.412C98.8752 119.131 98.7279 119.773 98.4332 120.336C98.1386 120.899 97.7312 121.337 97.2112 121.649C96.6999 121.961 96.1279 122.117 95.4952 122.117C94.8799 122.117 94.3382 121.983 93.8702 121.714C93.4109 121.445 93.0642 121.103 92.8302 120.687V122H91.6472V112.38H92.8302V116.202ZM97.6662 118.412C97.6662 117.875 97.5579 117.407 97.3412 117.008C97.1246 116.609 96.8299 116.306 96.4572 116.098C96.0932 115.89 95.6902 115.786 95.2482 115.786C94.8149 115.786 94.4119 115.894 94.0392 116.111C93.6752 116.319 93.3806 116.627 93.1552 117.034C92.9386 117.433 92.8302 117.896 92.8302 118.425C92.8302 118.962 92.9386 119.435 93.1552 119.842C93.3806 120.241 93.6752 120.548 94.0392 120.765C94.4119 120.973 94.8149 121.077 95.2482 121.077C95.6902 121.077 96.0932 120.973 96.4572 120.765C96.8299 120.548 97.1246 120.241 97.3412 119.842C97.5579 119.435 97.6662 118.958 97.6662 118.412ZM103.539 122.117C102.872 122.117 102.265 121.965 101.719 121.662C101.182 121.359 100.757 120.93 100.445 120.375C100.142 119.812 99.9904 119.162 99.9904 118.425C99.9904 117.697 100.146 117.056 100.458 116.501C100.779 115.938 101.212 115.509 101.758 115.214C102.304 114.911 102.915 114.759 103.591 114.759C104.267 114.759 104.878 114.911 105.424 115.214C105.97 115.509 106.399 115.933 106.711 116.488C107.032 117.043 107.192 117.688 107.192 118.425C107.192 119.162 107.028 119.812 106.698 120.375C106.378 120.93 105.94 121.359 105.385 121.662C104.831 121.965 104.215 122.117 103.539 122.117ZM103.539 121.077C103.964 121.077 104.363 120.977 104.735 120.778C105.108 120.579 105.407 120.28 105.632 119.881C105.866 119.482 105.983 118.997 105.983 118.425C105.983 117.853 105.871 117.368 105.645 116.969C105.42 116.57 105.125 116.276 104.761 116.085C104.397 115.886 104.003 115.786 103.578 115.786C103.145 115.786 102.746 115.886 102.382 116.085C102.027 116.276 101.741 116.57 101.524 116.969C101.308 117.368 101.199 117.853 101.199 118.425C101.199 119.006 101.303 119.495 101.511 119.894C101.728 120.293 102.014 120.592 102.369 120.791C102.725 120.982 103.115 121.077 103.539 121.077ZM108.306 118.412C108.306 117.684 108.453 117.047 108.748 116.501C109.042 115.946 109.445 115.517 109.957 115.214C110.477 114.911 111.053 114.759 111.686 114.759C112.31 114.759 112.851 114.893 113.311 115.162C113.77 115.431 114.112 115.769 114.338 116.176V114.876H115.534V122H114.338V120.674C114.104 121.09 113.753 121.437 113.285 121.714C112.825 121.983 112.288 122.117 111.673 122.117C111.04 122.117 110.468 121.961 109.957 121.649C109.445 121.337 109.042 120.899 108.748 120.336C108.453 119.773 108.306 119.131 108.306 118.412ZM114.338 118.425C114.338 117.888 114.229 117.42 114.013 117.021C113.796 116.622 113.501 116.319 113.129 116.111C112.765 115.894 112.362 115.786 111.92 115.786C111.478 115.786 111.075 115.89 110.711 116.098C110.347 116.306 110.056 116.609 109.84 117.008C109.623 117.407 109.515 117.875 109.515 118.412C109.515 118.958 109.623 119.435 109.84 119.842C110.056 120.241 110.347 120.548 110.711 120.765C111.075 120.973 111.478 121.077 111.92 121.077C112.362 121.077 112.765 120.973 113.129 120.765C113.501 120.548 113.796 120.241 114.013 119.842C114.229 119.435 114.338 118.962 114.338 118.425ZM118.716 116.033C118.924 115.626 119.219 115.309 119.6 115.084C119.99 114.859 120.462 114.746 121.017 114.746V115.968H120.705C119.379 115.968 118.716 116.687 118.716 118.126V122H117.533V114.876H118.716V116.033ZM121.941 118.412C121.941 117.684 122.088 117.047 122.383 116.501C122.677 115.946 123.08 115.517 123.592 115.214C124.112 114.911 124.692 114.759 125.334 114.759C125.888 114.759 126.404 114.889 126.881 115.149C127.357 115.4 127.721 115.734 127.973 116.15V112.38H129.169V122H127.973V120.661C127.739 121.086 127.392 121.437 126.933 121.714C126.473 121.983 125.936 122.117 125.321 122.117C124.688 122.117 124.112 121.961 123.592 121.649C123.08 121.337 122.677 120.899 122.383 120.336C122.088 119.773 121.941 119.131 121.941 118.412ZM127.973 118.425C127.973 117.888 127.864 117.42 127.648 117.021C127.431 116.622 127.136 116.319 126.764 116.111C126.4 115.894 125.997 115.786 125.555 115.786C125.113 115.786 124.71 115.89 124.346 116.098C123.982 116.306 123.691 116.609 123.475 117.008C123.258 117.407 123.15 117.875 123.15 118.412C123.15 118.958 123.258 119.435 123.475 119.842C123.691 120.241 123.982 120.548 124.346 120.765C124.71 120.973 125.113 121.077 125.555 121.077C125.997 121.077 126.4 120.973 126.764 120.765C127.136 120.548 127.431 120.241 127.648 119.842C127.864 119.435 127.973 118.962 127.973 118.425Z" fill="white"/>
<path d="M65.5443 218.939V228H64.3613V223.892H59.7463V228H58.5633V218.939H59.7463V222.917H64.3613V218.939H65.5443ZM72.3352 228L70.1772 224.295H68.7472V228H67.5642V218.939H70.4892C71.1739 218.939 71.7502 219.056 72.2182 219.29C72.6949 219.524 73.0502 219.84 73.2842 220.239C73.5182 220.638 73.6352 221.093 73.6352 221.604C73.6352 222.228 73.4532 222.778 73.0892 223.255C72.7339 223.732 72.1966 224.048 71.4772 224.204L73.7522 228H72.3352ZM68.7472 223.346H70.4892C71.1306 223.346 71.6116 223.19 71.9322 222.878C72.2529 222.557 72.4132 222.133 72.4132 221.604C72.4132 221.067 72.2529 220.651 71.9322 220.356C71.6202 220.061 71.1392 219.914 70.4892 219.914H68.7472V223.346Z" fill="#B5B5C3"/>
<path d="M229.12 218.805C228.862 218.544 228.862 218.122 229.12 217.862C229.378 217.601 229.797 217.601 230.056 217.862L234.025 221.862C234.276 222.114 234.285 222.521 234.045 222.784L230.406 226.784C230.159 227.055 229.741 227.073 229.472 226.825C229.202 226.576 229.184 226.154 229.431 225.883L232.642 222.353L229.12 218.805Z" fill="white" fill-opacity="0.5"/>
<path d="M59.7463 263.901V266.93H63.0483V267.905H59.7463V271.025H63.4383V272H58.5633V262.926H63.4383V263.901H59.7463ZM68.9463 272L67.2563 269.348L65.6313 272H64.3963L66.6973 268.464L64.3963 264.876H65.7353L67.4253 267.515L69.0373 264.876H70.2723L67.9843 268.399L70.2853 272H68.9463ZM72.632 266.189C72.866 265.782 73.2127 265.444 73.672 265.175C74.14 264.898 74.6817 264.759 75.297 264.759C75.9297 264.759 76.5017 264.911 77.013 265.214C77.533 265.517 77.9403 265.946 78.235 266.501C78.5297 267.047 78.677 267.684 78.677 268.412C78.677 269.131 78.5297 269.773 78.235 270.336C77.9403 270.899 77.533 271.337 77.013 271.649C76.5017 271.961 75.9297 272.117 75.297 272.117C74.6903 272.117 74.153 271.983 73.685 271.714C73.2257 271.437 72.8747 271.094 72.632 270.687V275.38H71.449V264.876H72.632V266.189ZM77.468 268.412C77.468 267.875 77.3597 267.407 77.143 267.008C76.9263 266.609 76.6317 266.306 76.259 266.098C75.895 265.89 75.492 265.786 75.05 265.786C74.6167 265.786 74.2137 265.894 73.841 266.111C73.477 266.319 73.1823 266.627 72.957 267.034C72.7403 267.433 72.632 267.896 72.632 268.425C72.632 268.962 72.7403 269.435 72.957 269.842C73.1823 270.241 73.477 270.548 73.841 270.765C74.2137 270.973 74.6167 271.077 75.05 271.077C75.492 271.077 75.895 270.973 76.259 270.765C76.6317 270.548 76.9263 270.241 77.143 269.842C77.3597 269.435 77.468 268.958 77.468 268.412ZM86.7342 268.165C86.7342 268.39 86.7212 268.629 86.6952 268.88H81.0012C81.0445 269.582 81.2828 270.132 81.7162 270.531C82.1582 270.921 82.6912 271.116 83.3152 271.116C83.8265 271.116 84.2512 270.999 84.5892 270.765C84.9358 270.522 85.1785 270.202 85.3172 269.803H86.5912C86.4005 270.488 86.0192 271.047 85.4472 271.48C84.8752 271.905 84.1645 272.117 83.3152 272.117C82.6392 272.117 82.0325 271.965 81.4952 271.662C80.9665 271.359 80.5505 270.93 80.2472 270.375C79.9438 269.812 79.7922 269.162 79.7922 268.425C79.7922 267.688 79.9395 267.043 80.2342 266.488C80.5288 265.933 80.9405 265.509 81.4692 265.214C82.0065 264.911 82.6218 264.759 83.3152 264.759C83.9912 264.759 84.5892 264.906 85.1092 265.201C85.6292 265.496 86.0278 265.903 86.3052 266.423C86.5912 266.934 86.7342 267.515 86.7342 268.165ZM85.5122 267.918C85.5122 267.467 85.4125 267.082 85.2132 266.761C85.0138 266.432 84.7408 266.185 84.3942 266.02C84.0562 265.847 83.6792 265.76 83.2632 265.76C82.6652 265.76 82.1538 265.951 81.7292 266.332C81.3132 266.713 81.0748 267.242 81.0142 267.918H85.5122ZM91.7667 264.746C92.6333 264.746 93.3353 265.01 93.8727 265.539C94.41 266.059 94.6787 266.813 94.6787 267.801V272H93.5087V267.97C93.5087 267.259 93.331 266.718 92.9757 266.345C92.6203 265.964 92.135 265.773 91.5197 265.773C90.8957 265.773 90.3973 265.968 90.0247 266.358C89.6607 266.748 89.4787 267.316 89.4787 268.061V272H88.2957V264.876H89.4787V265.89C89.7127 265.526 90.029 265.244 90.4277 265.045C90.835 264.846 91.2813 264.746 91.7667 264.746ZM99.1331 272.117C98.5871 272.117 98.0974 272.026 97.6641 271.844C97.2308 271.653 96.8884 271.393 96.6371 271.064C96.3858 270.726 96.2471 270.34 96.2211 269.907H97.4431C97.4778 270.262 97.6424 270.553 97.9371 270.778C98.2404 271.003 98.6348 271.116 99.1201 271.116C99.5708 271.116 99.9261 271.016 100.186 270.817C100.446 270.618 100.576 270.366 100.576 270.063C100.576 269.751 100.437 269.521 100.16 269.374C99.8828 269.218 99.4538 269.066 98.8731 268.919C98.3444 268.78 97.9111 268.642 97.5731 268.503C97.2438 268.356 96.9578 268.143 96.7151 267.866C96.4811 267.58 96.3641 267.207 96.3641 266.748C96.3641 266.384 96.4724 266.05 96.6891 265.747C96.9058 265.444 97.2134 265.205 97.6121 265.032C98.0108 264.85 98.4658 264.759 98.9771 264.759C99.7658 264.759 100.403 264.958 100.888 265.357C101.373 265.756 101.633 266.302 101.668 266.995H100.485C100.459 266.622 100.307 266.323 100.03 266.098C99.7614 265.873 99.3974 265.76 98.9381 265.76C98.5134 265.76 98.1754 265.851 97.9241 266.033C97.6728 266.215 97.5471 266.453 97.5471 266.748C97.5471 266.982 97.6208 267.177 97.7681 267.333C97.9241 267.48 98.1148 267.602 98.3401 267.697C98.5741 267.784 98.8948 267.883 99.3021 267.996C99.8134 268.135 100.229 268.273 100.55 268.412C100.871 268.542 101.144 268.741 101.369 269.01C101.603 269.279 101.724 269.63 101.733 270.063C101.733 270.453 101.625 270.804 101.408 271.116C101.191 271.428 100.884 271.675 100.485 271.857C100.095 272.03 99.6444 272.117 99.1331 272.117ZM109.903 268.165C109.903 268.39 109.89 268.629 109.864 268.88H104.17C104.213 269.582 104.452 270.132 104.885 270.531C105.327 270.921 105.86 271.116 106.484 271.116C106.995 271.116 107.42 270.999 107.758 270.765C108.105 270.522 108.347 270.202 108.486 269.803H109.76C109.569 270.488 109.188 271.047 108.616 271.48C108.044 271.905 107.333 272.117 106.484 272.117C105.808 272.117 105.201 271.965 104.664 271.662C104.135 271.359 103.719 270.93 103.416 270.375C103.113 269.812 102.961 269.162 102.961 268.425C102.961 267.688 103.108 267.043 103.403 266.488C103.698 265.933 104.109 265.509 104.638 265.214C105.175 264.911 105.791 264.759 106.484 264.759C107.16 264.759 107.758 264.906 108.278 265.201C108.798 265.496 109.197 265.903 109.474 266.423C109.76 266.934 109.903 267.515 109.903 268.165ZM108.681 267.918C108.681 267.467 108.581 267.082 108.382 266.761C108.183 266.432 107.91 266.185 107.563 266.02C107.225 265.847 106.848 265.76 106.432 265.76C105.834 265.76 105.323 265.951 104.898 266.332C104.482 266.713 104.244 267.242 104.183 267.918H108.681Z" fill="#B5B5C3"/>
<path d="M229.12 262.805C228.862 262.544 228.862 262.122 229.12 261.862C229.378 261.601 229.797 261.601 230.056 261.862L234.025 265.862C234.276 266.114 234.285 266.521 234.045 266.784L230.406 270.784C230.159 271.055 229.741 271.073 229.472 270.825C229.202 270.576 229.184 270.154 229.431 269.883L232.642 266.353L229.12 262.805Z" fill="white" fill-opacity="0.5"/>
<path d="M58.1213 311.463C58.1213 310.579 58.3206 309.786 58.7193 309.084C59.1179 308.373 59.6596 307.819 60.3443 307.42C61.0376 307.021 61.8046 306.822 62.6453 306.822C63.6333 306.822 64.4956 307.06 65.2323 307.537C65.9689 308.014 66.5063 308.69 66.8443 309.565H65.4273C65.1759 309.019 64.8119 308.599 64.3353 308.304C63.8673 308.009 63.3039 307.862 62.6453 307.862C62.0126 307.862 61.4449 308.009 60.9423 308.304C60.4396 308.599 60.0453 309.019 59.7593 309.565C59.4733 310.102 59.3303 310.735 59.3303 311.463C59.3303 312.182 59.4733 312.815 59.7593 313.361C60.0453 313.898 60.4396 314.314 60.9423 314.609C61.4449 314.904 62.0126 315.051 62.6453 315.051C63.3039 315.051 63.8673 314.908 64.3353 314.622C64.8119 314.327 65.1759 313.907 65.4273 313.361H66.8443C66.5063 314.228 65.9689 314.899 65.2323 315.376C64.4956 315.844 63.6333 316.078 62.6453 316.078C61.8046 316.078 61.0376 315.883 60.3443 315.493C59.6596 315.094 59.1179 314.544 58.7193 313.842C58.3206 313.14 58.1213 312.347 58.1213 311.463ZM75.1052 312.165C75.1052 312.39 75.0922 312.629 75.0662 312.88H69.3722C69.4156 313.582 69.6539 314.132 70.0872 314.531C70.5292 314.921 71.0622 315.116 71.6862 315.116C72.1976 315.116 72.6222 314.999 72.9602 314.765C73.3069 314.522 73.5496 314.202 73.6882 313.803H74.9622C74.7716 314.488 74.3902 315.047 73.8182 315.48C73.2462 315.905 72.5356 316.117 71.6862 316.117C71.0102 316.117 70.4036 315.965 69.8662 315.662C69.3376 315.359 68.9216 314.93 68.6182 314.375C68.3149 313.812 68.1632 313.162 68.1632 312.425C68.1632 311.688 68.3106 311.043 68.6052 310.488C68.8999 309.933 69.3116 309.509 69.8402 309.214C70.3776 308.911 70.9929 308.759 71.6862 308.759C72.3622 308.759 72.9602 308.906 73.4802 309.201C74.0002 309.496 74.3989 309.903 74.6762 310.423C74.9622 310.934 75.1052 311.515 75.1052 312.165ZM73.8832 311.918C73.8832 311.467 73.7836 311.082 73.5842 310.761C73.3849 310.432 73.1119 310.185 72.7652 310.02C72.4272 309.847 72.0502 309.76 71.6342 309.76C71.0362 309.76 70.5249 309.951 70.1002 310.332C69.6842 310.713 69.4459 311.242 69.3852 311.918H73.8832ZM77.8498 310.033C78.0578 309.626 78.3524 309.309 78.7338 309.084C79.1238 308.859 79.5961 308.746 80.1508 308.746V309.968H79.8388C78.5128 309.968 77.8498 310.687 77.8498 312.126V316H76.6668V308.876H77.8498V310.033ZM82.9594 309.851V314.05C82.9594 314.397 83.033 314.644 83.1804 314.791C83.3277 314.93 83.5834 314.999 83.9474 314.999H84.8184V316H83.7524C83.0937 316 82.5997 315.848 82.2704 315.545C81.941 315.242 81.7764 314.743 81.7764 314.05V309.851H80.8534V308.876H81.7764V307.082H82.9594V308.876H84.8184V309.851H82.9594ZM86.8627 307.719C86.6374 307.719 86.4467 307.641 86.2907 307.485C86.1347 307.329 86.0567 307.138 86.0567 306.913C86.0567 306.688 86.1347 306.497 86.2907 306.341C86.4467 306.185 86.6374 306.107 86.8627 306.107C87.0794 306.107 87.2614 306.185 87.4087 306.341C87.5647 306.497 87.6427 306.688 87.6427 306.913C87.6427 307.138 87.5647 307.329 87.4087 307.485C87.2614 307.641 87.0794 307.719 86.8627 307.719ZM87.4347 308.876V316H86.2517V308.876H87.4347ZM92.35 309.851H90.855V316H89.672V309.851H88.749V308.876H89.672V308.369C89.672 307.572 89.8756 306.991 90.283 306.627C90.699 306.254 91.362 306.068 92.272 306.068V307.056C91.752 307.056 91.3836 307.16 91.167 307.368C90.959 307.567 90.855 307.901 90.855 308.369V308.876H92.35V309.851ZM94.3403 307.719C94.1149 307.719 93.9243 307.641 93.7683 307.485C93.6123 307.329 93.5343 307.138 93.5343 306.913C93.5343 306.688 93.6123 306.497 93.7683 306.341C93.9243 306.185 94.1149 306.107 94.3403 306.107C94.5569 306.107 94.7389 306.185 94.8863 306.341C95.0423 306.497 95.1203 306.688 95.1203 306.913C95.1203 307.138 95.0423 307.329 94.8863 307.485C94.7389 307.641 94.5569 307.719 94.3403 307.719ZM94.9123 308.876V316H93.7293V308.876H94.9123ZM96.4865 312.425C96.4865 311.688 96.6338 311.047 96.9285 310.501C97.2232 309.946 97.6305 309.517 98.1505 309.214C98.6792 308.911 99.2815 308.759 99.9575 308.759C100.833 308.759 101.552 308.971 102.115 309.396C102.687 309.821 103.064 310.41 103.246 311.164H101.972C101.851 310.731 101.613 310.388 101.257 310.137C100.911 309.886 100.477 309.76 99.9575 309.76C99.2815 309.76 98.7355 309.994 98.3195 310.462C97.9035 310.921 97.6955 311.576 97.6955 312.425C97.6955 313.283 97.9035 313.946 98.3195 314.414C98.7355 314.882 99.2815 315.116 99.9575 315.116C100.477 315.116 100.911 314.995 101.257 314.752C101.604 314.509 101.842 314.163 101.972 313.712H103.246C103.056 314.44 102.674 315.025 102.102 315.467C101.53 315.9 100.815 316.117 99.9575 316.117C99.2815 316.117 98.6792 315.965 98.1505 315.662C97.6305 315.359 97.2232 314.93 96.9285 314.375C96.6338 313.82 96.4865 313.17 96.4865 312.425ZM104.383 312.412C104.383 311.684 104.53 311.047 104.825 310.501C105.12 309.946 105.523 309.517 106.034 309.214C106.554 308.911 107.13 308.759 107.763 308.759C108.387 308.759 108.929 308.893 109.388 309.162C109.847 309.431 110.19 309.769 110.415 310.176V308.876H111.611V316H110.415V314.674C110.181 315.09 109.83 315.437 109.362 315.714C108.903 315.983 108.365 316.117 107.75 316.117C107.117 316.117 106.545 315.961 106.034 315.649C105.523 315.337 105.12 314.899 104.825 314.336C104.53 313.773 104.383 313.131 104.383 312.412ZM110.415 312.425C110.415 311.888 110.307 311.42 110.09 311.021C109.873 310.622 109.579 310.319 109.206 310.111C108.842 309.894 108.439 309.786 107.997 309.786C107.555 309.786 107.152 309.89 106.788 310.098C106.424 310.306 106.134 310.609 105.917 311.008C105.7 311.407 105.592 311.875 105.592 312.412C105.592 312.958 105.7 313.435 105.917 313.842C106.134 314.241 106.424 314.548 106.788 314.765C107.152 314.973 107.555 315.077 107.997 315.077C108.439 315.077 108.842 314.973 109.206 314.765C109.579 314.548 109.873 314.241 110.09 313.842C110.307 313.435 110.415 312.962 110.415 312.425ZM115.053 309.851V314.05C115.053 314.397 115.127 314.644 115.274 314.791C115.421 314.93 115.677 314.999 116.041 314.999H116.912V316H115.846C115.187 316 114.693 315.848 114.364 315.545C114.035 315.242 113.87 314.743 113.87 314.05V309.851H112.947V308.876H113.87V307.082H115.053V308.876H116.912V309.851H115.053ZM124.845 312.165C124.845 312.39 124.832 312.629 124.806 312.88H119.112C119.156 313.582 119.394 314.132 119.827 314.531C120.269 314.921 120.802 315.116 121.426 315.116C121.938 315.116 122.362 314.999 122.7 314.765C123.047 314.522 123.29 314.202 123.428 313.803H124.702C124.512 314.488 124.13 315.047 123.558 315.48C122.986 315.905 122.276 316.117 121.426 316.117C120.75 316.117 120.144 315.965 119.606 315.662C119.078 315.359 118.662 314.93 118.358 314.375C118.055 313.812 117.903 313.162 117.903 312.425C117.903 311.688 118.051 311.043 118.345 310.488C118.64 309.933 119.052 309.509 119.58 309.214C120.118 308.911 120.733 308.759 121.426 308.759C122.102 308.759 122.7 308.906 123.22 309.201C123.74 309.496 124.139 309.903 124.416 310.423C124.702 310.934 124.845 311.515 124.845 312.165ZM123.623 311.918C123.623 311.467 123.524 311.082 123.324 310.761C123.125 310.432 122.852 310.185 122.505 310.02C122.167 309.847 121.79 309.76 121.374 309.76C120.776 309.76 120.265 309.951 119.84 310.332C119.424 310.713 119.186 311.242 119.125 311.918H123.623ZM128.929 316.117C128.383 316.117 127.893 316.026 127.46 315.844C127.027 315.653 126.684 315.393 126.433 315.064C126.182 314.726 126.043 314.34 126.017 313.907H127.239C127.274 314.262 127.438 314.553 127.733 314.778C128.036 315.003 128.431 315.116 128.916 315.116C129.367 315.116 129.722 315.016 129.982 314.817C130.242 314.618 130.372 314.366 130.372 314.063C130.372 313.751 130.233 313.521 129.956 313.374C129.679 313.218 129.25 313.066 128.669 312.919C128.14 312.78 127.707 312.642 127.369 312.503C127.04 312.356 126.754 312.143 126.511 311.866C126.277 311.58 126.16 311.207 126.16 310.748C126.16 310.384 126.268 310.05 126.485 309.747C126.702 309.444 127.009 309.205 127.408 309.032C127.807 308.85 128.262 308.759 128.773 308.759C129.562 308.759 130.199 308.958 130.684 309.357C131.169 309.756 131.429 310.302 131.464 310.995H130.281C130.255 310.622 130.103 310.323 129.826 310.098C129.557 309.873 129.193 309.76 128.734 309.76C128.309 309.76 127.971 309.851 127.72 310.033C127.469 310.215 127.343 310.453 127.343 310.748C127.343 310.982 127.417 311.177 127.564 311.333C127.72 311.48 127.911 311.602 128.136 311.697C128.37 311.784 128.691 311.883 129.098 311.996C129.609 312.135 130.025 312.273 130.346 312.412C130.667 312.542 130.94 312.741 131.165 313.01C131.399 313.279 131.52 313.63 131.529 314.063C131.529 314.453 131.421 314.804 131.204 315.116C130.987 315.428 130.68 315.675 130.281 315.857C129.891 316.03 129.44 316.117 128.929 316.117Z" fill="#B5B5C3"/>
<path d="M229.12 306.805C228.862 306.544 228.862 306.122 229.12 305.862C229.378 305.601 229.797 305.601 230.056 305.862L234.025 309.862C234.276 310.114 234.285 310.521 234.045 310.784L230.406 314.784C230.159 315.055 229.741 315.073 229.472 314.825C229.202 314.576 229.184 314.154 229.431 313.883L232.642 310.353L229.12 306.805Z" fill="white" fill-opacity="0.5"/>
<rect y="331" width="263" height="44" fill="#1B1B28"/>
<path d="M66.3243 350.965L62.9313 360H61.2153L57.8093 350.965H59.3953L62.0733 358.479L64.7643 350.965H66.3243ZM70.6706 360.117C69.9946 360.117 69.3836 359.965 68.8376 359.662C68.2916 359.35 67.8626 358.917 67.5506 358.362C67.2386 357.799 67.0826 357.149 67.0826 356.412C67.0826 355.684 67.243 355.038 67.5636 354.475C67.8843 353.912 68.322 353.478 68.8766 353.175C69.4313 352.872 70.051 352.72 70.7356 352.72C71.4203 352.72 72.04 352.872 72.5946 353.175C73.1493 353.478 73.587 353.912 73.9076 354.475C74.2283 355.038 74.3886 355.684 74.3886 356.412C74.3886 357.14 74.224 357.786 73.8946 358.349C73.5653 358.912 73.1146 359.35 72.5426 359.662C71.9793 359.965 71.3553 360.117 70.6706 360.117ZM70.6706 358.83C71.052 358.83 71.4073 358.739 71.7366 358.557C72.0746 358.375 72.3476 358.102 72.5556 357.738C72.7636 357.374 72.8676 356.932 72.8676 356.412C72.8676 355.892 72.768 355.454 72.5686 355.099C72.3693 354.735 72.105 354.462 71.7756 354.28C71.4463 354.098 71.091 354.007 70.7096 354.007C70.3283 354.007 69.973 354.098 69.6436 354.28C69.323 354.462 69.0673 354.735 68.8766 355.099C68.686 355.454 68.5906 355.892 68.5906 356.412C68.5906 357.183 68.7856 357.781 69.1756 358.206C69.5743 358.622 70.0726 358.83 70.6706 358.83ZM82.3017 352.837L77.9077 363.367H76.3737L77.8297 359.883L75.0087 352.837H76.6597L78.6747 358.297L80.7677 352.837H82.3017ZM82.9261 356.386C82.9261 355.667 83.0734 355.03 83.3681 354.475C83.6714 353.92 84.0787 353.491 84.5901 353.188C85.1101 352.876 85.6821 352.72 86.3061 352.72C86.8694 352.72 87.3591 352.833 87.7751 353.058C88.1997 353.275 88.5377 353.548 88.7891 353.877V352.837H90.2841V360H88.7891V358.934C88.5377 359.272 88.1954 359.554 87.7621 359.779C87.3287 360.004 86.8347 360.117 86.2801 360.117C85.6647 360.117 85.1014 359.961 84.5901 359.649C84.0787 359.328 83.6714 358.886 83.3681 358.323C83.0734 357.751 82.9261 357.105 82.9261 356.386ZM88.7891 356.412C88.7891 355.918 88.6851 355.489 88.4771 355.125C88.2777 354.761 88.0134 354.484 87.6841 354.293C87.3547 354.102 86.9994 354.007 86.6181 354.007C86.2367 354.007 85.8814 354.102 85.5521 354.293C85.2227 354.475 84.9541 354.748 84.7461 355.112C84.5467 355.467 84.4471 355.892 84.4471 356.386C84.4471 356.88 84.5467 357.313 84.7461 357.686C84.9541 358.059 85.2227 358.345 85.5521 358.544C85.8901 358.735 86.2454 358.83 86.6181 358.83C86.9994 358.83 87.3547 358.735 87.6841 358.544C88.0134 358.353 88.2777 358.076 88.4771 357.712C88.6851 357.339 88.7891 356.906 88.7891 356.412ZM95.1166 352.72C95.6713 352.72 96.1609 352.833 96.5856 353.058C97.0189 353.275 97.3569 353.548 97.5996 353.877V352.837H99.0946V360.117C99.0946 360.776 98.9559 361.361 98.6786 361.872C98.4013 362.392 97.9983 362.799 97.4696 363.094C96.9496 363.389 96.3256 363.536 95.5976 363.536C94.6269 363.536 93.8209 363.306 93.1796 362.847C92.5383 362.396 92.1743 361.781 92.0876 361.001H93.5566C93.6693 361.374 93.9076 361.673 94.2716 361.898C94.6443 362.132 95.0863 362.249 95.5976 362.249C96.1956 362.249 96.6766 362.067 97.0406 361.703C97.4133 361.339 97.5996 360.81 97.5996 360.117V358.921C97.3483 359.259 97.0059 359.545 96.5726 359.779C96.1479 360.004 95.6626 360.117 95.1166 360.117C94.4926 360.117 93.9206 359.961 93.4006 359.649C92.8893 359.328 92.4819 358.886 92.1786 358.323C91.8839 357.751 91.7366 357.105 91.7366 356.386C91.7366 355.667 91.8839 355.03 92.1786 354.475C92.4819 353.92 92.8893 353.491 93.4006 353.188C93.9206 352.876 94.4926 352.72 95.1166 352.72ZM97.5996 356.412C97.5996 355.918 97.4956 355.489 97.2876 355.125C97.0883 354.761 96.8239 354.484 96.4946 354.293C96.1653 354.102 95.8099 354.007 95.4286 354.007C95.0473 354.007 94.6919 354.102 94.3626 354.293C94.0333 354.475 93.7646 354.748 93.5566 355.112C93.3573 355.467 93.2576 355.892 93.2576 356.386C93.2576 356.88 93.3573 357.313 93.5566 357.686C93.7646 358.059 94.0333 358.345 94.3626 358.544C94.7006 358.735 95.0559 358.83 95.4286 358.83C95.8099 358.83 96.1653 358.735 96.4946 358.544C96.8239 358.353 97.0883 358.076 97.2876 357.712C97.4956 357.339 97.5996 356.906 97.5996 356.412ZM107.606 356.243C107.606 356.512 107.589 356.754 107.554 356.971H102.081C102.124 357.543 102.337 358.002 102.718 358.349C103.099 358.696 103.567 358.869 104.122 358.869C104.919 358.869 105.483 358.535 105.812 357.868H107.411C107.194 358.527 106.8 359.068 106.228 359.493C105.665 359.909 104.963 360.117 104.122 360.117C103.437 360.117 102.822 359.965 102.276 359.662C101.739 359.35 101.314 358.917 101.002 358.362C100.699 357.799 100.547 357.149 100.547 356.412C100.547 355.675 100.694 355.03 100.989 354.475C101.292 353.912 101.713 353.478 102.25 353.175C102.796 352.872 103.42 352.72 104.122 352.72C104.798 352.72 105.4 352.867 105.929 353.162C106.458 353.457 106.869 353.873 107.164 354.41C107.459 354.939 107.606 355.55 107.606 356.243ZM106.059 355.775C106.05 355.229 105.855 354.791 105.474 354.462C105.093 354.133 104.62 353.968 104.057 353.968C103.546 353.968 103.108 354.133 102.744 354.462C102.38 354.783 102.163 355.22 102.094 355.775H106.059Z" fill="white"/>
<path d="M34.5 218.5C33.9746 218.5 33.4611 218.665 33.0243 218.974C32.5874 219.283 32.247 219.722 32.0459 220.236C31.8449 220.75 31.7923 221.316 31.8948 221.861C31.9973 222.407 32.2503 222.908 32.6217 223.301C32.9932 223.695 33.4665 223.962 33.9818 224.071C34.4971 224.179 35.0311 224.124 35.5165 223.911C36.0019 223.698 36.4167 223.338 36.7086 222.875C37.0005 222.413 37.1563 221.869 37.1563 221.312C37.1563 220.567 36.8764 219.851 36.3783 219.324C35.8801 218.796 35.2045 218.5 34.5 218.5Z" fill="#B5B5C3"/>
<path d="M34.5 215.125C33.029 215.125 31.591 215.587 30.3679 216.452C29.1449 217.317 28.1916 218.547 27.6286 219.986C27.0657 221.425 26.9184 223.009 27.2054 224.536C27.4924 226.064 28.2007 227.467 29.2409 228.568C30.281 229.67 31.6063 230.42 33.049 230.724C34.4918 231.028 35.9872 230.872 37.3462 230.276C38.7052 229.68 39.8668 228.67 40.6841 227.375C41.5013 226.08 41.9375 224.558 41.9375 223C41.9353 220.912 41.1509 218.91 39.7566 217.434C38.3623 215.958 36.4719 215.127 34.5 215.125ZM38.7458 228.021C38.7352 227.283 38.4513 226.579 37.9552 226.061C37.4592 225.543 36.7907 225.251 36.0938 225.25H32.9063C32.2094 225.251 31.5409 225.543 31.0448 226.061C30.5487 226.579 30.2648 227.283 30.2543 228.021C29.2909 227.11 28.6115 225.911 28.3061 224.582C28.0007 223.253 28.0836 221.858 28.544 220.58C29.0043 219.302 29.8203 218.203 30.884 217.427C31.9476 216.651 33.2087 216.236 34.5003 216.236C35.7918 216.236 37.0529 216.651 38.1166 217.427C39.1802 218.203 39.9962 219.302 40.4566 220.58C40.9169 221.858 40.9999 223.253 40.6945 224.582C40.3891 225.911 39.7097 227.11 38.7463 228.021H38.7458Z" fill="#B5B5C3"/>
<path d="M38.6562 263.875H26.4688V273.25H38.6562V263.875ZM37.7188 272.312H27.4062V264.812H37.7188V272.312Z" fill="#B5B5C3"/>
<path d="M39.5938 266.219V274.188H28.8125V275.125H40.5312V266.219H39.5938Z" fill="#B5B5C3"/>
<path d="M32.5625 270.861C33.7256 270.861 34.6719 269.832 34.6719 268.566C34.6719 267.301 33.7256 266.272 32.5625 266.272C31.3994 266.272 30.4531 267.301 30.4531 268.566C30.4531 269.832 31.3994 270.861 32.5625 270.861ZM32.5625 267.209C33.2087 267.209 33.7344 267.818 33.7344 268.566C33.7344 269.315 33.2087 269.924 32.5625 269.924C31.9163 269.924 31.3906 269.315 31.3906 268.566C31.3906 267.818 31.9163 267.209 32.5625 267.209Z" fill="#B5B5C3"/>
<path d="M28.3438 265.984H29.2812V271.141H28.3438V265.984Z" fill="#B5B5C3"/>
<path d="M35.8438 265.984H36.7812V271.141H35.8438V265.984Z" fill="#B5B5C3"/>
<path d="M36.25 312.25C36.7314 312.25 37.2026 312.389 37.607 312.65C38.0115 312.911 38.332 313.283 38.53 313.722C38.728 314.161 38.7951 314.647 38.7232 315.123C38.6514 315.599 38.4437 316.044 38.125 316.405V319.28C38.1252 319.36 38.1047 319.439 38.0656 319.509C38.0265 319.579 37.9701 319.638 37.9017 319.68C37.8333 319.722 37.7553 319.746 37.6751 319.749C37.595 319.753 37.5153 319.735 37.4438 319.699L37.3875 319.664L36.25 318.869L35.1125 319.664C35.0468 319.71 34.9705 319.739 34.8907 319.747C34.811 319.754 34.7306 319.742 34.6571 319.71C34.5836 319.678 34.5196 319.628 34.4711 319.564C34.4226 319.5 34.3912 319.425 34.38 319.346L34.3756 319.281V316.404C34.0572 316.044 33.8496 315.599 33.7779 315.123C33.7061 314.647 33.7732 314.161 33.9711 313.722C34.169 313.283 34.4893 312.911 34.8936 312.65C35.2978 312.389 35.7688 312.25 36.25 312.25ZM37.1875 317.069C36.8896 317.19 36.5713 317.251 36.25 317.251C35.9287 317.251 35.6104 317.19 35.3125 317.069V318.381L35.9819 317.914C36.0505 317.866 36.1306 317.837 36.214 317.831C36.2975 317.824 36.3811 317.84 36.4563 317.877L36.5188 317.914L37.1875 318.381V317.069ZM37.0312 307.878C37.469 307.878 37.8903 308.045 38.2091 308.345C38.528 308.645 38.7203 309.055 38.7469 309.492L38.75 309.596L38.7506 312.875C38.4971 312.538 38.1783 312.255 37.8131 312.044L37.8125 309.596C37.8124 309.402 37.7407 309.216 37.6112 309.072C37.4817 308.929 37.3035 308.839 37.1112 308.819L37.0312 308.814H27.9688C27.7753 308.814 27.5888 308.886 27.4451 309.016C27.3015 309.145 27.2111 309.323 27.1913 309.516L27.1875 309.596V315.533C27.1875 315.938 27.495 316.271 27.8888 316.311L27.9688 316.314L33.545 316.315L33.6225 316.442L33.7056 316.565L33.75 316.623L33.7494 317.252H27.9688C27.5311 317.252 27.1099 317.085 26.7911 316.785C26.4723 316.485 26.2799 316.075 26.2531 315.638L26.25 315.534V309.596C26.2501 309.159 26.4172 308.738 26.717 308.419C27.0169 308.1 27.427 307.908 27.8637 307.881L27.9688 307.878H37.0312V307.878ZM36.25 313.188C35.8355 313.188 35.438 313.352 35.1449 313.645C34.8518 313.938 34.6872 314.336 34.6872 314.75C34.6872 315.165 34.8518 315.562 35.1449 315.855C35.438 316.149 35.8355 316.313 36.25 316.313C36.6645 316.313 37.062 316.149 37.3551 315.855C37.6482 315.562 37.8128 315.165 37.8128 314.75C37.8128 314.336 37.6482 313.938 37.3551 313.645C37.062 313.352 36.6645 313.188 36.25 313.188ZM32.0312 313.813C32.15 313.813 32.2643 313.858 32.3511 313.939C32.4379 314.02 32.4907 314.131 32.4988 314.249C32.5069 314.368 32.4697 314.485 32.3947 314.577C32.3198 314.669 32.2127 314.729 32.095 314.746L32.0312 314.75H29.2188C29.1 314.75 28.9857 314.705 28.8989 314.624C28.8121 314.543 28.7593 314.432 28.7512 314.313C28.7431 314.195 28.7803 314.078 28.8553 313.985C28.9302 313.893 29.0373 313.833 29.155 313.817L29.2188 313.813H32.0312ZM35.7812 310.375C35.9 310.375 36.0143 310.42 36.1011 310.501C36.1879 310.582 36.2407 310.693 36.2488 310.812C36.2569 310.93 36.2197 311.047 36.1447 311.14C36.0698 311.232 35.9627 311.292 35.845 311.308L35.7812 311.313H29.2188C29.1 311.312 28.9857 311.267 28.8989 311.186C28.8121 311.105 28.7593 310.994 28.7512 310.876C28.7431 310.757 28.7803 310.64 28.8553 310.548C28.9302 310.456 29.0373 310.396 29.155 310.379L29.2188 310.375H35.7812Z" fill="#B5B5C3"/>
<path d="M30.1044 351.167C29.9883 351.167 29.877 351.213 29.795 351.295C29.7129 351.377 29.6669 351.488 29.6669 351.604V352.917H28.3544C28.2383 352.917 28.127 352.963 28.045 353.045C27.9629 353.127 27.9169 353.238 27.9169 353.354V356.133L27.0652 356.445C27.0083 356.466 26.9564 356.498 26.9127 356.54C26.8689 356.582 26.8344 356.633 26.8112 356.689C26.788 356.745 26.7767 356.805 26.7779 356.865C26.7792 356.926 26.793 356.985 26.8184 357.04L28.1805 359.968C28.3797 359.902 28.5944 359.899 28.7952 359.96C28.9961 360.021 29.1733 360.142 29.3029 360.307L27.813 357.103L31.6554 355.696C31.8794 355.614 32.125 355.613 32.3496 355.693L36.3017 357.104L34.7722 360.222C34.9113 360.08 35.0886 359.982 35.2824 359.94C35.4763 359.898 35.6782 359.913 35.8636 359.984L37.3033 357.049C37.3304 356.994 37.3456 356.933 37.3478 356.872C37.35 356.81 37.3391 356.749 37.316 356.692C37.2928 356.634 37.2578 356.583 37.2133 356.54C37.1688 356.498 37.1157 356.465 37.0577 356.444L36.0835 356.096V353.354C36.0835 353.238 36.0374 353.127 35.9554 353.045C35.8733 352.963 35.7621 352.917 35.646 352.917H34.3335V351.604C34.3335 351.488 34.2874 351.377 34.2054 351.295C34.1233 351.213 34.0121 351.167 33.896 351.167H30.1044ZM33.4585 352.917H30.5419V352.042H33.4585V352.917ZM35.2085 353.792V355.784L32.6436 354.869C32.2264 354.72 31.7703 354.722 31.3544 354.875L28.7919 355.812V353.792H35.2085Z" fill="#4BA4FF"/>
<path d="M35.9242 360.829L35.9224 360.823C35.8976 360.732 35.8436 360.651 35.7687 360.592C35.6938 360.534 35.602 360.502 35.5072 360.5C35.4123 360.499 35.3195 360.528 35.2428 360.584C35.1661 360.64 35.1096 360.719 35.0818 360.81V360.811L35.0795 360.816L35.0678 360.85C34.9939 361.048 34.8923 361.235 34.7662 361.404C34.5405 361.705 34.2185 361.958 33.7501 361.958C33.2817 361.958 32.9591 361.705 32.7333 361.404C32.6 361.225 32.4942 361.026 32.4195 360.816L32.4177 360.81C32.3904 360.721 32.3349 360.642 32.2595 360.586C32.1841 360.531 32.0928 360.5 31.999 360.501C31.9052 360.501 31.8139 360.531 31.7386 360.587C31.6633 360.643 31.6079 360.721 31.5807 360.811V360.811L31.5783 360.817C31.5586 360.875 31.5362 360.931 31.5112 360.986C31.4593 361.102 31.3788 361.255 31.2662 361.404C31.0417 361.705 30.7202 361.958 30.2501 361.958C29.7799 361.958 29.4579 361.705 29.2327 361.404C29.1 361.225 28.9948 361.027 28.9207 360.817L28.9189 360.81C28.8913 360.72 28.835 360.64 28.7584 360.584C28.6818 360.528 28.5891 360.499 28.4942 360.5C28.3994 360.501 28.3075 360.533 28.2325 360.592C28.1575 360.65 28.1034 360.73 28.0783 360.822L28.0766 360.827L28.0661 360.859C27.9974 361.053 27.8982 361.234 27.7721 361.397C27.5481 361.682 27.1911 361.958 26.6042 361.958C26.4882 361.958 26.3769 362.004 26.2949 362.086C26.2128 362.169 26.1667 362.28 26.1667 362.396C26.1667 362.512 26.2128 362.623 26.2949 362.705C26.3769 362.787 26.4882 362.833 26.6042 362.833C27.5224 362.833 28.1133 362.38 28.461 361.937L28.5001 361.885L28.5327 361.929C28.8547 362.358 29.4077 362.833 30.2501 362.833C31.0924 362.833 31.6454 362.358 31.9668 361.929L32.0001 361.884L32.0339 361.93C32.3559 362.358 32.9089 362.833 33.7501 362.833C34.5912 362.833 35.1442 362.358 35.4662 361.929L35.4983 361.885C35.5106 361.903 35.5234 361.919 35.5368 361.936C35.8839 362.38 36.476 362.833 37.3959 362.833C37.5119 362.833 37.6232 362.787 37.7053 362.705C37.7873 362.623 37.8334 362.512 37.8334 362.396C37.8334 362.28 37.7873 362.169 37.7053 362.086C37.6232 362.004 37.5119 361.958 37.3959 361.958C36.8056 361.958 36.4492 361.682 36.2263 361.397C36.0941 361.226 35.992 361.034 35.9242 360.829Z" fill="#B5B5C3"/>
</svg>
