<svg width="25" height="25" viewBox="0 0 25 25" fill="none" xmlns="http://www.w3.org/2000/svg">
<path d="M11.4688 16.7646C12.0172 17.2038 12.797 17.2035 13.3451 16.764L20.0169 11.4128L20.246 11.2301C20.9977 10.6304 20.9989 9.48824 20.2485 8.88695L13.3451 3.35555C12.797 2.91632 12.0174 2.91632 11.4692 3.35555L4.56144 8.89053C3.81245 9.49068 3.81196 10.6301 4.56044 11.2309L4.78712 11.4128L11.4688 16.7646Z" fill="#6993FF"/>
<path opacity="0.3" fill-rule="evenodd" clip-rule="evenodd" d="M13.3347 19.4702C12.7866 19.9094 12.0072 19.9094 11.459 19.4704L5.52621 14.7185C5.11478 14.389 4.51294 14.4616 4.19168 14.8795C3.87519 15.2913 3.95204 15.8815 4.36341 16.1985L11.4902 21.6902C12.0297 22.106 12.7815 22.106 13.3211 21.6904L20.4445 16.2034C20.8594 15.8838 20.9367 15.2885 20.6172 14.8736C20.2932 14.4529 19.6872 14.3802 19.2729 14.7121L13.3347 19.4702Z" fill="#6993FF"/>
</svg>
