<svg width="15" height="15" viewBox="0 0 15 15" fill="none" xmlns="http://www.w3.org/2000/svg">
<path d="M12.6562 1.875H0.46875V11.25H12.6562V1.875ZM11.7188 10.3125H1.40625V2.8125H11.7188V10.3125Z" fill="#B5B5C3"/>
<path d="M13.5938 4.21875V12.1875H2.8125V13.125H14.5312V4.21875H13.5938Z" fill="#B5B5C3"/>
<path d="M6.5625 8.86112C7.72559 8.86112 8.67188 7.83172 8.67188 6.56641C8.67188 5.3011 7.72559 4.2717 6.5625 4.2717C5.39941 4.2717 4.45312 5.30108 4.45312 6.56641C4.45312 7.83174 5.39941 8.86112 6.5625 8.86112ZM6.5625 5.2092C7.20867 5.2092 7.73438 5.81805 7.73438 6.56641C7.73438 7.31477 7.20867 7.92362 6.5625 7.92362C5.91633 7.92362 5.39062 7.31477 5.39062 6.56641C5.39062 5.81805 5.91633 5.2092 6.5625 5.2092Z" fill="#B5B5C3"/>
<path d="M2.34375 3.98438H3.28125V9.14062H2.34375V3.98438Z" fill="#B5B5C3"/>
<path d="M9.84375 3.98438H10.7812V9.14062H9.84375V3.98438Z" fill="#B5B5C3"/>
</svg>
