<svg xmlns="http://www.w3.org/2000/svg" width="18.886" height="13.615" viewBox="0 0 18.886 13.615"><defs><style>.a{fill:#b5b5c3;}.b{fill:#4ba4ff;}</style></defs><g transform="translate(0 2.275)"><path class="a" d="M10.571,96.111a.762.762,0,0,1-.525-1.327.7.7,0,0,0,.077-.942,5.611,5.611,0,0,0-.9-.908.7.7,0,0,0-.95.077.812.812,0,0,1-.59.245.709.709,0,0,1-.27-.051.767.767,0,0,1-.466-.75.7.7,0,0,0-.613-.731,5.678,5.678,0,0,0-1.276,0,.7.7,0,0,0-.618.715.77.77,0,0,1-.472.738.7.7,0,0,1-.264.049.817.817,0,0,1-.592-.245A.7.7,0,0,0,2.17,92.9a5.631,5.631,0,0,0-.917.907.7.7,0,0,0,.075.95.765.765,0,0,1,.194.861.818.818,0,0,1-.771.466.688.688,0,0,0-.708.614,5.675,5.675,0,0,0,0,1.289.747.747,0,0,0,.745.616H.812a.756.756,0,0,1,.685.473.769.769,0,0,1-.195.855.7.7,0,0,0-.076.941,5.628,5.628,0,0,0,.9.908.695.695,0,0,0,.951-.075.813.813,0,0,1,.591-.246.7.7,0,0,1,.27.051.766.766,0,0,1,.467.749.694.694,0,0,0,.613.731,5.627,5.627,0,0,0,.654.038,5.69,5.69,0,0,0,.623-.034.7.7,0,0,0,.618-.715.768.768,0,0,1,.471-.737.708.708,0,0,1,.265-.049.817.817,0,0,1,.592.246.7.7,0,0,0,.941.078,5.648,5.648,0,0,0,.917-.907.7.7,0,0,0-.075-.95.765.765,0,0,1-.194-.861.774.774,0,0,1,.7-.468h.092a.693.693,0,0,0,.685-.614,5.66,5.66,0,0,0,0-1.29A.742.742,0,0,0,10.571,96.111Zm-.052,1.714a1.586,1.586,0,0,0-1.433.96,1.568,1.568,0,0,0,.321,1.695,4.842,4.842,0,0,1-.649.641,1.634,1.634,0,0,0-1.113-.434,1.5,1.5,0,0,0-.569.109,1.574,1.574,0,0,0-.971,1.408,4.874,4.874,0,0,1-.9,0,1.571,1.571,0,0,0-.961-1.433,1.491,1.491,0,0,0-.581-.114,1.631,1.631,0,0,0-1.114.436,4.832,4.832,0,0,1-.632-.64,1.575,1.575,0,0,0,.321-1.68A1.567,1.567,0,0,0,.828,97.8a4.87,4.87,0,0,1,0-.914,1.61,1.61,0,0,0,1.432-.957,1.57,1.57,0,0,0-.321-1.7,4.832,4.832,0,0,1,.648-.641,1.634,1.634,0,0,0,1.114.434,1.5,1.5,0,0,0,.568-.109,1.576,1.576,0,0,0,.971-1.408,4.868,4.868,0,0,1,.9,0,1.573,1.573,0,0,0,.96,1.434,1.5,1.5,0,0,0,.58.113A1.63,1.63,0,0,0,8.8,93.624a4.812,4.812,0,0,1,.633.64,1.564,1.564,0,0,0,1.09,2.65A4.851,4.851,0,0,1,10.519,97.825Z" transform="translate(-0.004 -91.687)"/><path class="a" d="M67.879,157.46a2.159,2.159,0,1,0,2.159,2.159A2.161,2.161,0,0,0,67.879,157.46Zm0,3.515a1.356,1.356,0,1,1,1.356-1.356A1.357,1.357,0,0,1,67.879,160.975Z" transform="translate(-62.201 -153.938)"/></g><g transform="translate(10.548)"><path class="b" d="M245.475,95.992a1.67,1.67,0,1,0,1.544,1.03A1.657,1.657,0,0,0,245.475,95.992Zm.375,2.57a.974.974,0,0,1-1.272-.527.975.975,0,0,1,.526-1.273.974.974,0,0,1,1.272.527A.975.975,0,0,1,245.85,98.562Z" transform="translate(-241.298 -93.486)"/><path class="b" d="M204.912,53.895a.529.529,0,0,1-.353-.5.543.543,0,0,1,.324-.485l.034-.013a.572.572,0,0,0,.357-.691,4.306,4.306,0,0,0-.374-.907.576.576,0,0,0-.511-.282.625.625,0,0,0-.237.046.556.556,0,0,1-.213.043.521.521,0,0,1-.372-.154.533.533,0,0,1-.1-.6.57.57,0,0,0-.237-.736,4.268,4.268,0,0,0-.9-.376.568.568,0,0,0-.694.356.567.567,0,0,1-.5.352.531.531,0,0,1-.5-.356.568.568,0,0,0-.693-.36,4.309,4.309,0,0,0-.9.369.571.571,0,0,0-.243.734.533.533,0,0,1-.106.6.564.564,0,0,1-.386.146.5.5,0,0,1-.213-.044.564.564,0,0,0-.241-.054.571.571,0,0,0-.5.29,4.286,4.286,0,0,0-.38.9.569.569,0,0,0,.354.694.53.53,0,0,1,.352.5.57.57,0,0,1-.373.5.561.561,0,0,0-.342.686,4.315,4.315,0,0,0,.374.906.575.575,0,0,0,.511.281.637.637,0,0,0,.242-.047l.008,0a.479.479,0,0,1,.2-.041.529.529,0,0,1,.478.755.57.57,0,0,0,.237.735,4.28,4.28,0,0,0,.895.377.568.568,0,0,0,.7-.355.567.567,0,0,1,.5-.352.53.53,0,0,1,.5.355.568.568,0,0,0,.692.36,4.3,4.3,0,0,0,.9-.369.571.571,0,0,0,.243-.735.531.531,0,0,1,.106-.6.556.556,0,0,1,.386-.146.508.508,0,0,1,.215.045.565.565,0,0,0,.24.053h0a.573.573,0,0,0,.5-.289,4.3,4.3,0,0,0,.38-.9A.569.569,0,0,0,204.912,53.895Zm-.579,1.159a1.23,1.23,0,0,0-.4-.065,1.248,1.248,0,0,0-.876.348,1.23,1.23,0,0,0-.293,1.268c-.085.043-.171.083-.259.12s-.188.073-.284.1a1.229,1.229,0,0,0-1.111-.709,1.263,1.263,0,0,0-1.1.7,3.585,3.585,0,0,1-.542-.228,1.225,1.225,0,0,0-1.155-1.633,1.175,1.175,0,0,0-.4.07,3.623,3.623,0,0,1-.228-.554,1.253,1.253,0,0,0,.71-1.1,1.227,1.227,0,0,0-.7-1.111,3.59,3.59,0,0,1,.232-.55,1.226,1.226,0,0,0,.4.065,1.249,1.249,0,0,0,.876-.348,1.232,1.232,0,0,0,.294-1.268,3.62,3.62,0,0,1,.543-.224,1.23,1.23,0,0,0,1.108.709,1.265,1.265,0,0,0,1.107-.7,3.567,3.567,0,0,1,.542.228,1.232,1.232,0,0,0,.285,1.27,1.213,1.213,0,0,0,.867.36,1.243,1.243,0,0,0,.4-.068,3.6,3.6,0,0,1,.228.552,1.24,1.24,0,0,0-.709,1.105,1.226,1.226,0,0,0,.7,1.11A3.6,3.6,0,0,1,204.333,55.054Z" transform="translate(-196.957 -49.214)"/></g></svg>