<svg width="27" height="35" viewBox="0 0 27 35" fill="none" xmlns="http://www.w3.org/2000/svg">
<path d="M16.725 12.125C16.725 12.9803 16.3853 13.8006 15.7804 14.4054C15.1756 15.0102 14.3553 15.35 13.5 15.35C12.6447 15.35 11.8244 15.0102 11.2196 14.4054C10.6148 13.8006 10.275 12.9803 10.275 12.125C10.275 11.2697 10.6148 10.4494 11.2196 9.84459C11.8244 9.23978 12.6447 8.90001 13.5 8.90001C14.3553 8.90001 15.1756 9.23978 15.7804 9.84459C16.3853 10.4494 16.725 11.2697 16.725 12.125Z" fill="white"/>
<path d="M7.04993 19.1125V19.65C7.04993 20.7904 7.50296 21.8842 8.30937 22.6906C9.11577 23.497 10.2095 23.95 11.3499 23.95H15.6499C16.7904 23.95 17.8841 23.497 18.6905 22.6906C19.4969 21.8842 19.9499 20.7904 19.9499 19.65V19.1125C19.9499 18.6848 19.78 18.2747 19.4776 17.9723C19.1752 17.6699 18.7651 17.5 18.3374 17.5H8.66243C8.23476 17.5 7.82462 17.6699 7.52222 17.9723C7.21981 18.2747 7.04993 18.6848 7.04993 19.1125Z" fill="white"/>
<path d="M0.599976 4.6V30.4C0.599976 31.5404 1.05301 32.6342 1.85942 33.4406C2.66582 34.247 3.75954 34.7 4.89998 34.7H25.325C25.6101 34.7 25.8835 34.5867 26.0851 34.3851C26.2867 34.1835 26.4 33.9101 26.4 33.625C26.4 33.3399 26.2867 33.0665 26.0851 32.8649C25.8835 32.6633 25.6101 32.55 25.325 32.55H4.89998C4.32976 32.55 3.7829 32.3235 3.3797 31.9203C2.97649 31.5171 2.74998 30.9702 2.74998 30.4H24.25C24.8202 30.4 25.3671 30.1735 25.7703 29.7703C26.1735 29.3671 26.4 28.8202 26.4 28.25V4.6C26.4 3.45957 25.9469 2.36585 25.1405 1.55944C24.3341 0.753037 23.2404 0.300003 22.1 0.300003H4.89998C3.75954 0.300003 2.66582 0.753037 1.85942 1.55944C1.05301 2.36585 0.599976 3.45957 0.599976 4.6ZM22.1 2.45C22.6702 2.45 23.2171 2.67652 23.6203 3.07972C24.0235 3.48293 24.25 4.02979 24.25 4.6V28.25H2.74998V4.6C2.74998 4.02979 2.97649 3.48293 3.3797 3.07972C3.7829 2.67652 4.32976 2.45 4.89998 2.45H22.1Z" fill="white"/>
</svg>
