<svg width="17" height="18" viewBox="0 0 17 18" fill="none" xmlns="http://www.w3.org/2000/svg">
<path d="M8.5 4.5C7.97464 4.5 7.46109 4.66495 7.02427 4.97399C6.58745 5.28303 6.24699 5.72229 6.04595 6.2362C5.8449 6.75012 5.7923 7.31562 5.89479 7.86119C5.99728 8.40676 6.25027 8.9079 6.62175 9.30124C6.99323 9.69457 7.46653 9.96244 7.98179 10.071C8.49705 10.1795 9.03114 10.1238 9.5165 9.91091C10.0019 9.69804 10.4167 9.33755 10.7086 8.87504C11.0005 8.41253 11.1563 7.86876 11.1563 7.3125C11.1563 6.56658 10.8764 5.85121 10.3783 5.32376C9.88011 4.79632 9.20448 4.5 8.5 4.5Z" fill="#4BA4FF"/>
<path d="M8.5 1.125C7.029 1.125 5.59104 1.58686 4.36795 2.45218C3.14486 3.31749 2.19158 4.5474 1.62865 5.98637C1.06572 7.42534 0.918435 9.00874 1.20541 10.5363C1.49239 12.0639 2.20074 13.4671 3.2409 14.5685C4.28105 15.6698 5.60629 16.4198 7.04902 16.7237C8.49175 17.0275 9.98719 16.8716 11.3462 16.2756C12.7052 15.6795 13.8668 14.6702 14.6841 13.3751C15.5013 12.0801 15.9375 10.5575 15.9375 9C15.9353 6.91215 15.1509 4.9105 13.7566 3.43417C12.3623 1.95783 10.4719 1.12738 8.5 1.125ZM12.7458 14.0209C12.7352 13.2831 12.4513 12.5792 11.9552 12.0609C11.4592 11.5426 10.7907 11.2514 10.0938 11.25H6.90625C6.20935 11.2514 5.54085 11.5426 5.0448 12.0609C4.54875 12.5792 4.26484 13.2831 4.25425 14.0209C3.29087 13.11 2.61148 11.9109 2.30607 10.5821C2.00066 9.25338 2.08362 7.85776 2.54397 6.58005C3.00432 5.30234 3.82034 4.20281 4.88398 3.42707C5.94763 2.65132 7.20872 2.23595 8.50027 2.23595C9.79182 2.23595 11.0529 2.65132 12.1166 3.42707C13.1802 4.20281 13.9962 5.30234 14.4566 6.58005C14.9169 7.85776 14.9999 9.25338 14.6945 10.5821C14.3891 11.9109 13.7091 13.11 12.7458 14.0209Z" fill="#B5B5C3"/>
</svg>
