<svg width="15" height="16" viewBox="0 0 15 16" fill="none" xmlns="http://www.w3.org/2000/svg">
<path d="M7.5 0.125C6.02901 0.125 4.59104 0.586861 3.36795 1.45218C2.14486 2.31749 1.19158 3.5474 0.628649 4.98637C0.0657225 6.42534 -0.0815648 8.00874 0.205413 9.53634C0.49239 11.0639 1.20074 12.4671 2.2409 13.5685C3.28105 14.6698 4.60629 15.4198 6.04902 15.7237C7.49175 16.0275 8.98719 15.8716 10.3462 15.2756C11.7052 14.6795 12.8668 13.6702 13.6841 12.3751C14.5013 11.0801 14.9375 9.55753 14.9375 8C14.9353 5.91215 14.1509 3.9105 12.7566 2.43417C11.3623 0.957832 9.47186 0.127382 7.5 0.125ZM11.7458 13.0209C11.7352 12.2831 11.4513 11.5792 10.9552 11.0609C10.4592 10.5426 9.79066 10.2514 9.09375 10.25H5.90625C5.20935 10.2514 4.54085 10.5426 4.0448 11.0609C3.54875 11.5792 3.26484 12.2831 3.25425 13.0209C2.29087 12.11 1.61148 10.9109 1.30607 9.58212C1.00066 8.25338 1.08362 6.85776 1.54397 5.58005C2.00432 4.30234 2.82034 3.20281 3.88398 2.42707C4.94763 1.65132 6.20872 1.23595 7.50027 1.23595C8.79182 1.23595 10.0529 1.65132 11.1166 2.42707C12.1802 3.20281 12.9962 4.30234 13.4566 5.58005C13.9169 6.85776 13.9999 8.25338 13.6945 9.58212C13.3891 10.9109 12.7097 12.11 11.7463 13.0209H11.7458Z" fill="#B5B5C3"/>
</svg>
