<svg xmlns="http://www.w3.org/2000/svg" width="13.03" height="15.224" viewBox="0 0 13.03 15.224"><defs><style>.a{fill:none;stroke:#b5b5c3;stroke-linecap:round;stroke-linejoin:round;stroke-width:1.2px;}.b{fill:#4ba4ff;}</style></defs><g transform="translate(0.644)"><g transform="translate(0 1.526)"><path class="a" d="M16.243,12.135V6.916a1.3,1.3,0,0,0-.652-1.129l-4.567-2.61a1.3,1.3,0,0,0-1.3,0L5.152,5.787A1.3,1.3,0,0,0,4.5,6.916v5.219a1.3,1.3,0,0,0,.652,1.129l4.567,2.61a1.3,1.3,0,0,0,1.3,0l4.567-2.61A1.3,1.3,0,0,0,16.243,12.135Z" transform="translate(-4.5 -3.003)"/><path class="a" d="M4.905,10.44l5.7,3.295,5.7-3.295" transform="translate(-4.729 -7.205)"/><path class="a" d="M18,24.576V18" transform="translate(-12.129 -11.477)"/></g><path class="b" d="M33.178,382.425l-4.942,2.83,4.942,2.536,5.021-2.536Z" transform="translate(-27.306 -382.425)"/></g></svg>