<svg width="13" height="14" viewBox="0 0 13 14" fill="none" xmlns="http://www.w3.org/2000/svg">
<path d="M2.78573 3.71429C2.41842 3.71429 2.05936 3.60537 1.75396 3.4013C1.44855 3.19724 1.21052 2.90719 1.06996 2.56784C0.929394 2.22849 0.892616 1.85508 0.964274 1.49483C1.03593 1.13458 1.21281 0.803672 1.47253 0.543945C1.73226 0.284219 2.06317 0.107344 2.42342 0.0356853C2.78367 -0.035973 3.15708 0.000804665 3.49643 0.141367C3.83578 0.28193 4.12582 0.519965 4.32989 0.82537C4.53396 1.13078 4.64288 1.48984 4.64288 1.85714C4.64288 2.34969 4.44721 2.82206 4.09893 3.17034C3.75065 3.51862 3.27828 3.71429 2.78573 3.71429ZM2.78573 0.928572C2.60208 0.928572 2.42255 0.983032 2.26985 1.08506C2.11714 1.1871 1.99813 1.33212 1.92784 1.50179C1.85756 1.67147 1.83917 1.85817 1.875 2.0383C1.91083 2.21842 1.99927 2.38388 2.12913 2.51374C2.259 2.64361 2.42445 2.73204 2.60458 2.76787C2.7847 2.8037 2.97141 2.78531 3.14108 2.71503C3.31076 2.64475 3.45578 2.52573 3.55781 2.37303C3.65984 2.22033 3.7143 2.0408 3.7143 1.85714C3.7143 1.61087 3.61647 1.37469 3.44233 1.20054C3.26819 1.0264 3.03201 0.928572 2.78573 0.928572Z" fill="white"/>
<path d="M10.2142 3.71429C9.84689 3.71429 9.48783 3.60537 9.18243 3.4013C8.87702 3.19724 8.63899 2.90719 8.49842 2.56784C8.35786 2.22849 8.32108 1.85508 8.39274 1.49483C8.4644 1.13458 8.64128 0.803672 8.901 0.543945C9.16073 0.284219 9.49164 0.107344 9.85189 0.0356853C10.2121 -0.035973 10.5855 0.000804665 10.9249 0.141367C11.2642 0.28193 11.5543 0.519965 11.7584 0.82537C11.9624 1.13078 12.0713 1.48984 12.0713 1.85714C12.0713 2.34969 11.8757 2.82206 11.5274 3.17034C11.1791 3.51862 10.7067 3.71429 10.2142 3.71429ZM10.2142 0.928572C10.0305 0.928572 9.85102 0.983032 9.69831 1.08506C9.54561 1.1871 9.42659 1.33212 9.35631 1.50179C9.28603 1.67147 9.26764 1.85817 9.30347 2.0383C9.3393 2.21842 9.42774 2.38388 9.5576 2.51374C9.68746 2.64361 9.85292 2.73204 10.033 2.76787C10.2132 2.8037 10.3999 2.78531 10.5695 2.71503C10.7392 2.64475 10.8842 2.52573 10.9863 2.37303C11.0883 2.22033 11.1428 2.0408 11.1428 1.85714C11.1428 1.61087 11.0449 1.37469 10.8708 1.20054C10.6967 1.0264 10.4605 0.928572 10.2142 0.928572Z" fill="white"/>
<path d="M11.1429 13.4643H9.28571C9.03944 13.4643 8.80326 13.3665 8.62912 13.1923C8.45497 13.0182 8.35714 12.782 8.35714 12.5357V9.28572H9.28571V12.5357H11.1429V8.35714H12.0714V5.57143C12.0714 5.44829 12.0225 5.3302 11.9354 5.24313C11.8484 5.15606 11.7303 5.10714 11.6071 5.10714H8.62643L6.5 8.82143L4.37357 5.10714H1.39286C1.26972 5.10714 1.15163 5.15606 1.06456 5.24313C0.977487 5.3302 0.928571 5.44829 0.928571 5.57143V8.35714H1.85714V12.5357H3.71429V9.28572H4.64286V12.5357C4.64286 12.782 4.54503 13.0182 4.37088 13.1923C4.19674 13.3665 3.96056 13.4643 3.71429 13.4643H1.85714C1.61087 13.4643 1.37468 13.3665 1.20054 13.1923C1.0264 13.0182 0.928571 12.782 0.928571 12.5357V9.28572C0.682299 9.28572 0.446113 9.18788 0.271972 9.01374C0.0978313 8.8396 0 8.60342 0 8.35714V5.57143C0 5.20202 0.146747 4.84774 0.407958 4.58653C0.66917 4.32532 1.02345 4.17857 1.39286 4.17857H4.91214L6.5 6.96429L8.08786 4.17857H11.6071C11.9766 4.17857 12.3308 4.32532 12.592 4.58653C12.8533 4.84774 13 5.20202 13 5.57143V8.35714C13 8.60342 12.9022 8.8396 12.728 9.01374C12.5539 9.18788 12.3177 9.28572 12.0714 9.28572V12.5357C12.0714 12.782 11.9736 13.0182 11.7995 13.1923C11.6253 13.3665 11.3891 13.4643 11.1429 13.4643Z" fill="white"/>
</svg>
