<svg xmlns="http://www.w3.org/2000/svg" width="12.887" height="11.257" viewBox="0 0 12.887 11.257"><defs><style>.a{fill:#fff;}</style></defs><path class="a" d="M9.262,0a1.207,1.207,0,0,1,1.208,1.206v.4h.4a2.012,2.012,0,0,1,2.014,2.01v4.02a1.207,1.207,0,0,1-1.208,1.206H10.471v1.206a1.207,1.207,0,0,1-1.208,1.206H3.624a1.207,1.207,0,0,1-1.208-1.206V8.845H1.208A1.207,1.207,0,0,1,0,7.638V3.618a2.012,2.012,0,0,1,2.014-2.01h.4v-.4A1.207,1.207,0,0,1,3.624,0Zm0,6.432H3.624a.4.4,0,0,0-.4.4v3.216a.4.4,0,0,0,.4.4H9.262a.4.4,0,0,0,.4-.4V6.834a.4.4,0,0,0-.4-.4ZM9.262.8H3.624a.4.4,0,0,0-.4.4v.4H9.665v-.4a.4.4,0,0,0-.4-.4Z"/></svg>