<svg xmlns="http://www.w3.org/2000/svg" width="15.723" height="15.743" viewBox="0 0 15.723 15.743"><defs><style>.a{fill:#b5b5c3;stroke:#b5b5c3;}.a,.b{stroke-width:0.2px;}.b{fill:#4ba4ff;stroke:#4ba4ff;}</style></defs><g transform="translate(-26.739 -382.629)"><g transform="translate(10.839 367.461)"><path class="a" d="M120.517,192.517H126.2v5.424h.517v-5.682a.258.258,0,0,0-.258-.258h-6.2a.258.258,0,0,0-.258.258v4.391h.517Z" transform="translate(-100.694 -171.016)"/><path class="a" d="M171.616,234.066H171.1v-.775a.258.258,0,0,0-.258-.258h-.775v-.775a.258.258,0,0,0-.258-.258h-1.033a.258.258,0,0,0-.258.258v1.808H168v.517h3.616Zm-1.033-.517v.517h-.517v-.517Zm-1.55-1.033h.517v1.55h-.517Z" transform="translate(-147.093 -209.724)"/><path class="a" d="M27.042,345.32a.925.925,0,0,0-.724,0l-1.67.709a.9.9,0,0,0-.9-1h-2a1.312,1.312,0,0,1-.584-.138,6.065,6.065,0,0,0-2.7-.637h-.655A.258.258,0,0,0,17.55,344H16v.517h1.291v3.1H16v.517h1.55a.258.258,0,0,0,.258-.258v-.1l1.928.8a4.469,4.469,0,0,0,3.287.036l3.99-1.521a.94.94,0,0,0,.528-.5.956.956,0,0,0,.015-.741A.94.94,0,0,0,27.042,345.32Zm.026,1.06a.427.427,0,0,1-.239.229l-3.99,1.521a3.953,3.953,0,0,1-2.906-.031l-2.125-.882v-2.442h.655a5.545,5.545,0,0,1,2.468.583,1.832,1.832,0,0,0,.815.192h2a.387.387,0,1,1,.015.774H20.649v.517h3.1l.054,0a1.6,1.6,0,0,0,.558-.126l2.159-.917a.412.412,0,0,1,.323,0,.427.427,0,0,1,.233.24A.443.443,0,0,1,27.068,346.38Z" transform="translate(0 -318.108)"/><rect class="a" width="0.517" height="0.517" transform="translate(20.649 25.633)"/><rect class="a" width="3.099" height="0.517" transform="translate(21.682 25.633)"/><path class="a" d="M181.695,25.583l-.317.951.49.163.49-1.47a.258.258,0,0,0-.163-.327l-1.47-.49-.163.49.8.267a5.469,5.469,0,0,0-2.782,3.014l.484.181A4.948,4.948,0,0,1,181.695,25.583Z" transform="translate(-157.331 -8.836)"/><path class="a" d="M170.488,158.139l-.5-.129a5.418,5.418,0,0,0-.11.543l.511.077A4.919,4.919,0,0,1,170.488,158.139Z" transform="translate(-148.909 -138.123)"/><path class="a" d="M342.408,315.129l.1.506a5.418,5.418,0,0,0,2.5-1.248l-.342-.387A4.9,4.9,0,0,1,342.408,315.129Z" transform="translate(-315.87 -289.077)"/></g><g transform="translate(10.839 367.461)"><path class="b" d="M303.269,21.139l-1.729-2.81v-.874l.723-.964a.258.258,0,0,0,.052-.155,1.056,1.056,0,0,0-1.529-.945l-.8.4-.8-.4a1.056,1.056,0,0,0-1.529.945.258.258,0,0,0,.052.155l.723.964v.874l-1.253,2.036.44.271,1.216-1.976h2.294l1.692,2.75a1.755,1.755,0,0,1-1.495,2.674H298.7V24.6h2.636a2.271,2.271,0,0,0,1.934-3.462Zm-4.831-5.263a.536.536,0,0,1,.525-.024l.911.456a.258.258,0,0,0,.231,0l.911-.456a.54.54,0,0,1,.776.4l-.64.853h-2.325l-.64-.853a.536.536,0,0,1,.25-.381Zm2.585,2.267h-2.066v-.517h2.066Z" transform="translate(-272.109)"/><path class="b" d="M360,162.066v.038a.739.739,0,0,0,.517.7v.292h.517v-.292a.737.737,0,0,0,.109-1.363l-.5-.252a.221.221,0,0,1,.1-.418h.075a.221.221,0,0,1,.221.221v.038h.517V161a.739.739,0,0,0-.517-.7V160h-.517v.292a.737.737,0,0,0-.109,1.363l.5.252a.221.221,0,0,1-.1.418h-.075a.221.221,0,0,1-.221-.221v-.038Z" transform="translate(-332.893 -140.049)"/><rect class="b" width="0.517" height="0.517" transform="translate(29.173 21.242)"/></g></g></svg>