<svg width="37" height="35" viewBox="0 0 37 35" fill="none" xmlns="http://www.w3.org/2000/svg">
<path d="M29.25 12.9168C30.6299 12.9161 31.9808 13.3138 33.1402 14.0622C34.2996 14.8106 35.2183 15.8778 35.7859 17.1356C36.3535 18.3934 36.5459 19.7884 36.34 21.1529C36.134 22.5174 35.5385 23.7935 34.625 24.8278V33.0694C34.6254 33.2995 34.5668 33.5258 34.4547 33.7267C34.3427 33.9276 34.1809 34.0964 33.9849 34.2169C33.7889 34.3374 33.5653 34.4055 33.3354 34.4148C33.1055 34.424 32.8771 34.3741 32.6721 34.2699L32.5108 34.1713L29.25 31.8923L25.9891 34.1713C25.8008 34.3028 25.5819 34.3838 25.3534 34.4067C25.1249 34.4295 24.8943 34.3934 24.6837 34.3017C24.4731 34.2101 24.2895 34.066 24.1504 33.8832C24.0113 33.7004 23.9214 33.485 23.8893 33.2576L23.8768 33.0712V24.826C22.9639 23.7917 22.3689 22.516 22.1632 21.152C21.9576 19.7879 22.1499 18.3935 22.7172 17.1361C23.2846 15.8787 24.2027 14.8117 25.3615 14.0633C26.5203 13.3148 27.8705 12.9167 29.25 12.9168ZM31.9375 26.7323C31.0835 27.077 30.1709 27.2534 29.25 27.2519C28.329 27.2534 27.4165 27.077 26.5625 26.7323V30.4912L28.4813 29.1529C28.678 29.0155 28.9078 28.9332 29.1469 28.9146C29.386 28.896 29.6258 28.9418 29.8412 29.0471L30.0204 29.1546L31.9375 30.4912V26.7323ZM31.4896 0.382263C32.7445 0.382229 33.9522 0.86108 34.8662 1.7211C35.7801 2.58112 36.3315 3.75748 36.4077 5.01014L36.4166 5.30935L36.4184 14.7084C35.6917 13.7417 34.7777 12.9313 33.7309 12.3255L33.7291 5.30756C33.729 4.75342 33.5233 4.21903 33.152 3.80769C32.7807 3.39634 32.2701 3.13726 31.7189 3.08051L31.4896 3.06797H5.5104C4.95595 3.06772 4.42112 3.27314 4.0094 3.64448C3.59768 4.01583 3.33834 4.52669 3.28156 5.07822L3.27081 5.30756V22.3284C3.27081 23.4876 4.15231 24.4426 5.28106 24.5572L5.5104 24.568L21.4956 24.5698L21.7178 24.9335L21.9561 25.2864L22.0833 25.4531L22.0815 27.2555H5.5104C4.25572 27.2555 3.04828 26.7769 2.13436 25.9173C1.22045 25.0576 0.668921 23.8817 0.592272 22.6294L0.583313 22.3302V5.30935C0.583707 4.05498 1.06251 2.84798 1.92211 1.93445C2.78171 1.02092 3.95737 0.469644 5.2094 0.393013L5.5104 0.384055H31.4896V0.382263ZM29.25 15.6043C28.0618 15.6043 26.9223 16.0763 26.0821 16.9164C25.2419 17.7566 24.7699 18.8961 24.7699 20.0843C24.7699 21.2725 25.2419 22.412 26.0821 23.2522C26.9223 24.0924 28.0618 24.5644 29.25 24.5644C30.4382 24.5644 31.5777 24.0924 32.4179 23.2522C33.258 22.412 33.73 21.2725 33.73 20.0843C33.73 18.8961 33.258 17.7566 32.4179 16.9164C31.5777 16.0763 30.4382 15.6043 29.25 15.6043ZM17.1562 17.3959C17.4967 17.396 17.8244 17.5254 18.0732 17.7578C18.322 17.9902 18.4732 18.3084 18.4964 18.6481C18.5196 18.9878 18.4131 19.3236 18.1982 19.5877C17.9834 19.8518 17.6763 20.0245 17.339 20.0709L17.1562 20.0834H9.09373C8.75327 20.0833 8.42554 19.954 8.17677 19.7216C7.92799 19.4891 7.77672 19.1709 7.75352 18.8313C7.73031 18.4916 7.8369 18.1558 8.05175 17.8917C8.26661 17.6276 8.5737 17.4549 8.91098 17.4085L9.09373 17.3959H17.1562ZM27.9062 7.54176C28.2467 7.54187 28.5744 7.6712 28.8232 7.90363C29.072 8.13606 29.2232 8.45426 29.2464 8.79393C29.2696 9.13359 29.1631 9.46941 28.9482 9.73351C28.7334 9.99761 28.4263 10.1703 28.089 10.2167L27.9062 10.2293H9.09373C8.75327 10.2292 8.42554 10.0998 8.17677 9.8674C7.92799 9.63497 7.77672 9.31677 7.75352 8.97711C7.73031 8.63744 7.8369 8.30162 8.05175 8.03752C8.26661 7.77342 8.5737 7.60071 8.91098 7.55431L9.09373 7.54176H27.9062Z" fill="white"/>
</svg>
