<svg width="12" height="10" viewBox="0 0 12 10" fill="none" xmlns="http://www.w3.org/2000/svg">
<path d="M4.10436 0.166656C3.98832 0.166656 3.87704 0.21275 3.795 0.294797C3.71295 0.376844 3.66686 0.488124 3.66686 0.604156V1.91666H2.35436C2.23832 1.91666 2.12704 1.96275 2.045 2.0448C1.96295 2.12684 1.91686 2.23812 1.91686 2.35416V5.13316L1.06519 5.44524C1.00832 5.46602 0.956384 5.49837 0.912666 5.54026C0.868947 5.58214 0.834398 5.63265 0.811205 5.68858C0.788012 5.7445 0.776679 5.80463 0.777925 5.86517C0.77917 5.9257 0.792965 5.98531 0.818439 6.04024L2.18052 8.96799C2.37974 8.90223 2.59439 8.89949 2.79523 8.96014C2.99607 9.02079 3.17332 9.14188 3.30286 9.30691L1.81302 6.10324L5.65544 4.69624C5.87938 4.61421 6.12498 4.61318 6.34961 4.69332L10.3017 6.10382L8.77219 9.22174C8.91127 9.08024 9.08858 8.98237 9.28243 8.9401C9.47628 8.89783 9.67824 8.91299 9.86361 8.98374L11.3033 6.04899C11.3304 5.99366 11.3456 5.93322 11.3478 5.87162C11.35 5.81001 11.3391 5.74864 11.316 5.69153C11.2928 5.63442 11.2578 5.58285 11.2133 5.5402C11.1688 5.49756 11.1157 5.4648 11.0577 5.44407L10.0835 5.09641V2.35416C10.0835 2.23812 10.0374 2.12684 9.95538 2.0448C9.87333 1.96275 9.76205 1.91666 9.64602 1.91666H8.33352V0.604156C8.33352 0.488124 8.28743 0.376844 8.20538 0.294797C8.12333 0.21275 8.01205 0.166656 7.89602 0.166656H4.10436ZM7.45852 1.91666H4.54186V1.04166H7.45852V1.91666ZM9.20852 2.79166V4.78432L6.64361 3.86907C6.2264 3.72037 5.77029 3.72243 5.35444 3.87491L2.79186 4.81232V2.79166H9.20852Z" fill="#4BA4FF"/>
</svg>
