<svg xmlns="http://www.w3.org/2000/svg" width="26.134" height="29.725" viewBox="0 0 26.134 29.725"><defs><style>.a{fill:none;stroke:#000;}</style></defs><path class="a" d="M22.441,0H2.693A2.761,2.761,0,0,0,0,2.693V26.032a2.761,2.761,0,0,0,2.693,2.693H22.441a2.761,2.761,0,0,0,2.693-2.693V2.693A2.761,2.761,0,0,0,22.441,0ZM7.181,24.416a.772.772,0,0,1-.718.718H4.309a.772.772,0,0,1-.718-.718V22.262a.772.772,0,0,1,.718-.718H6.463a.772.772,0,0,1,.718.718Zm0-7.181a.772.772,0,0,1-.718.718H4.309a.772.772,0,0,1-.718-.718V15.08a.772.772,0,0,1,.718-.718H6.463a.772.772,0,0,1,.718.718Zm7.181,7.181a.772.772,0,0,1-.718.718H11.49a.772.772,0,0,1-.718-.718V22.262a.772.772,0,0,1,.718-.718h2.154a.772.772,0,0,1,.718.718Zm0-7.181a.772.772,0,0,1-.718.718H11.49a.772.772,0,0,1-.718-.718V15.08a.772.772,0,0,1,.718-.718h2.154a.772.772,0,0,1,.718.718Zm7.181,7.181a.772.772,0,0,1-.718.718H18.671a.772.772,0,0,1-.718-.718V15.08a.772.772,0,0,1,.718-.718h2.154a.772.772,0,0,1,.718.718v9.335Zm0-14.362a.772.772,0,0,1-.718.718H4.309a.772.772,0,0,1-.718-.718V4.309a.772.772,0,0,1,.718-.718H20.825a.772.772,0,0,1,.718.718Z" transform="translate(0.5 0.5)"/></svg>